<?xml version="1.0" encoding="UTF-8" ?>
<!DOCTYPE svg PUBLIC "-//W3C//DTD SVG 1.1//EN" "http://www.w3.org/Graphics/SVG/1.1/DTD/svg11.dtd">
<svg width="129pt" height="199pt" viewBox="0 0 129 199" version="1.1" xmlns="http://www.w3.org/2000/svg">
<g id="#9b1e28ff">
<path fill="#9b1e28" opacity="1.00" d=" M 55.23 1.53 C 57.98 0.44 59.62 2.44 60.06 4.96 C 60.47 3.67 59.82 0.74 62.03 1.12 C 64.17 0.63 64.63 2.87 64.74 4.47 C 65.35 2.97 66.33 1.81 68.15 2.26 C 70.27 3.72 68.65 5.92 68.13 7.78 C 69.59 6.17 71.29 4.64 73.67 5.26 C 73.65 6.53 73.60 7.81 73.54 9.09 C 75.80 10.72 75.54 13.87 76.56 16.22 C 75.89 17.87 73.77 16.91 72.43 17.35 C 72.48 17.67 72.57 18.30 72.62 18.62 L 72.47 18.96 C 76.00 19.37 74.54 22.28 72.86 23.64 C 72.49 24.66 72.10 25.68 71.69 26.68 C 70.36 26.70 69.03 26.56 67.71 26.46 C 67.67 27.46 67.62 28.47 67.57 29.47 C 65.22 30.05 62.84 30.56 60.44 30.93 C 60.33 28.81 60.25 26.68 60.18 24.56 C 58.98 26.66 57.66 28.80 55.61 30.17 C 53.90 28.43 52.11 26.77 50.49 24.95 C 51.47 23.25 52.81 21.80 54.10 20.33 C 51.57 21.09 48.96 21.60 46.31 21.63 C 47.46 19.11 46.28 16.42 46.85 13.91 C 47.82 13.75 49.78 13.41 50.76 13.24 C 49.29 12.60 46.62 12.24 47.15 10.01 C 47.06 7.13 50.67 8.73 52.36 8.75 C 50.74 7.84 50.14 6.51 50.55 4.76 C 51.68 4.39 52.85 4.20 54.06 4.19 C 54.52 5.04 54.98 5.88 55.45 6.73 C 55.36 5.00 55.29 3.26 55.23 1.53 Z" />
<path fill="#9b1e28" opacity="1.00" d=" M 5.01 60.73 C 43.67 50.58 85.61 48.94 123.79 61.99 C 124.99 62.40 126.20 62.79 127.41 63.18 C 127.62 67.40 127.69 71.63 127.84 75.85 C 126.55 75.54 125.26 75.24 123.97 74.96 C 84.41 64.47 42.07 63.46 2.41 74.04 L 1.38 74.29 C 1.27 70.35 1.30 66.40 0.73 62.49 C 2.10 61.77 3.51 61.13 5.01 60.73 Z" />
<path fill="#9b1e28" opacity="1.00" d=" M 20.44 124.34 C 30.82 134.43 44.55 141.14 59.04 142.26 C 76.42 143.85 94.19 137.40 106.77 125.36 C 106.36 127.18 105.90 129.10 104.49 130.43 C 96.59 138.76 85.88 143.93 74.86 146.70 C 69.45 148.29 63.90 146.09 58.43 147.37 C 48.63 146.49 39.22 142.35 31.14 136.81 C 26.94 133.77 22.53 130.36 20.68 125.31 L 20.44 124.34 Z" />
<path fill="#9b1e28" opacity="1.00" d=" M 5.39 162.53 C 8.11 161.20 10.87 159.43 14.03 159.59 C 16.80 159.71 19.03 161.55 21.42 162.74 C 18.67 163.52 15.87 165.83 16.70 169.02 C 17.14 172.33 20.71 172.87 23.35 173.46 C 21.57 176.03 19.50 178.51 16.59 179.84 C 11.96 180.54 6.60 179.16 4.45 174.62 C 2.12 170.73 3.84 166.33 5.39 162.53 Z" />
<path fill="#9b1e28" opacity="1.00" d=" M 105.84 162.62 C 108.45 161.33 110.97 159.29 114.06 159.58 C 117.16 159.69 119.70 161.67 122.21 163.26 C 123.44 166.90 124.74 171.12 122.61 174.71 C 120.13 179.72 113.23 181.40 108.52 178.66 C 106.66 177.16 105.09 175.34 103.68 173.42 C 106.02 172.76 109.27 172.71 110.13 169.90 C 111.62 166.59 108.83 163.58 105.84 162.62 Z" />
<path fill="#9b1e28" opacity="1.00" d=" M 20.31 164.38 C 24.73 162.87 26.80 170.19 22.56 171.61 C 18.01 173.30 15.79 165.68 20.31 164.38 Z" />
<path fill="#9b1e28" opacity="1.00" d=" M 105.25 164.25 C 109.99 163.50 110.76 171.52 106.02 171.79 C 101.46 172.27 100.77 164.77 105.25 164.25 Z" />
</g>
<g id="#3e477eff">
<path fill="#3e477e" opacity="1.00" d=" M 72.62 18.62 C 75.09 16.57 78.30 18.45 80.98 19.02 C 101.44 24.66 118.07 41.61 123.79 61.99 C 85.61 48.94 43.67 50.58 5.01 60.73 C 10.77 41.20 26.80 25.36 46.15 19.24 C 46.19 19.84 46.27 21.04 46.31 21.63 C 48.96 21.60 51.57 21.09 54.10 20.33 C 52.81 21.80 51.47 23.25 50.49 24.95 C 52.11 26.77 53.90 28.43 55.61 30.17 C 57.66 28.80 58.98 26.66 60.18 24.56 C 60.25 26.68 60.33 28.81 60.44 30.93 C 62.84 30.56 65.22 30.05 67.57 29.47 C 67.62 28.47 67.67 27.46 67.71 26.46 C 69.03 26.56 70.36 26.70 71.69 26.68 C 72.10 25.68 72.49 24.66 72.86 23.64 C 74.54 22.28 76.00 19.37 72.47 18.96 L 72.62 18.62 Z" />
<path fill="#3e477e" opacity="1.00" d=" M 64.80 185.24 C 79.47 184.45 93.92 181.80 108.25 178.71 C 108.19 183.89 108.24 189.07 108.19 194.24 C 94.00 190.76 79.13 192.27 64.85 194.42 C 61.52 194.84 58.33 193.59 55.12 192.95 C 43.58 190.52 31.51 191.53 20.22 194.69 C 20.22 190.11 20.21 185.54 20.22 180.97 C 34.25 184.84 48.93 185.73 63.43 185.30 C 63.77 185.29 64.46 185.25 64.80 185.24 Z" />
</g>
<g id="#f6d6b2ff">
<path fill="#f6d6b2" opacity="1.00" d=" M 2.41 74.04 C 42.07 63.46 84.41 64.47 123.97 74.96 C 124.78 75.37 125.57 75.78 126.36 76.22 C 126.95 94.14 120.31 112.35 107.29 124.85 C 107.12 125.02 106.94 125.19 106.77 125.36 C 94.19 137.40 76.42 143.85 59.04 142.26 C 44.55 141.14 30.82 134.43 20.44 124.34 C 7.51 111.21 0.64 92.42 2.41 74.04 M 43.43 69.60 C 36.56 72.29 31.98 79.02 30.21 85.98 C 28.22 93.60 33.29 101.91 40.65 104.31 C 47.11 106.53 54.33 103.71 58.91 98.98 C 61.54 95.98 64.41 92.37 64.04 88.13 C 64.13 85.23 63.26 81.68 65.81 79.55 C 65.89 83.72 65.30 88.08 66.81 92.08 C 69.65 99.10 76.36 104.73 84.05 105.30 C 92.48 105.89 100.42 98.44 100.51 90.02 C 100.57 84.86 98.18 80.00 95.12 75.97 C 90.21 69.41 80.90 66.67 73.21 69.41 C 69.05 71.16 66.94 75.46 65.34 79.40 C 63.52 75.88 61.94 71.79 58.26 69.78 C 53.68 67.49 48.13 67.81 43.43 69.60 M 55.19 125.72 C 59.09 125.77 62.99 124.93 66.87 125.49 C 69.52 125.85 71.93 127.06 74.46 127.84 C 72.22 125.08 68.37 124.56 65.05 124.30 C 61.74 124.27 58.19 124.06 55.19 125.72 Z" />
</g>
<g id="#ffffffff">
<path fill="#ffffff" opacity="1.00" d=" M 43.43 69.60 C 48.13 67.81 53.68 67.49 58.26 69.78 C 61.94 71.79 63.52 75.88 65.34 79.40 C 66.94 75.46 69.05 71.16 73.21 69.41 C 80.90 66.67 90.21 69.41 95.12 75.97 C 98.18 80.00 100.57 84.86 100.51 90.02 C 100.42 98.44 92.48 105.89 84.05 105.30 C 76.36 104.73 69.65 99.10 66.81 92.08 C 65.30 88.08 65.89 83.72 65.81 79.55 C 63.26 81.68 64.13 85.23 64.04 88.13 C 64.41 92.37 61.54 95.98 58.91 98.98 C 54.33 103.71 47.11 106.53 40.65 104.31 C 33.29 101.91 28.22 93.60 30.21 85.98 C 31.98 79.02 36.56 72.29 43.43 69.60 M 52.55 87.19 C 52.16 90.03 55.90 90.39 57.29 88.42 C 57.29 87.93 57.30 86.93 57.31 86.44 C 56.04 84.75 52.63 84.58 52.55 87.19 M 73.47 85.47 C 73.41 86.74 73.03 88.09 73.66 89.28 C 74.86 90.05 76.25 89.62 77.55 89.50 C 77.58 88.17 77.57 86.83 77.52 85.49 C 76.17 85.45 74.82 85.44 73.47 85.47 Z" />
</g>
<g id="#1d1815ff">
<path fill="#1d1815" opacity="1.00" d=" M 52.55 87.19 C 52.63 84.58 56.04 84.75 57.31 86.44 C 57.30 86.93 57.29 87.93 57.29 88.42 C 55.90 90.39 52.16 90.03 52.55 87.19 Z" />
<path fill="#1d1815" opacity="1.00" d=" M 73.47 85.47 C 74.82 85.44 76.17 85.45 77.52 85.49 C 77.57 86.83 77.58 88.17 77.55 89.50 C 76.25 89.62 74.86 90.05 73.66 89.28 C 73.03 88.09 73.41 86.74 73.47 85.47 Z" />
<path fill="#1d1815" opacity="1.00" d=" M 55.19 125.72 C 58.19 124.06 61.74 124.27 65.05 124.30 C 68.37 124.56 72.22 125.08 74.46 127.84 C 71.93 127.06 69.52 125.85 66.87 125.49 C 62.99 124.93 59.09 125.77 55.19 125.72 Z" />
<path fill="#1d1815" opacity="1.00" d=" M 63.40 151.98 C 63.33 150.40 63.62 148.81 64.41 147.43 C 65.25 160.01 64.54 172.64 64.80 185.24 C 64.46 185.25 63.77 185.29 63.43 185.30 C 63.52 174.19 63.53 163.08 63.40 151.98 Z" />
<path fill="#1d1815" opacity="1.00" d=" M 58.10 150.15 C 60.53 148.77 62.87 153.16 60.35 154.41 C 59.21 155.34 57.79 154.30 56.58 154.15 C 56.86 152.76 56.44 150.79 58.10 150.15 Z" />
<path fill="#1d1815" opacity="1.00" d=" M 22.34 162.33 C 23.12 158.37 23.75 154.34 25.45 150.65 C 25.06 153.77 24.38 156.85 24.04 159.98 C 23.42 162.89 25.51 165.32 26.18 168.01 C 26.08 170.13 24.38 171.72 23.35 173.46 C 20.71 172.87 17.14 172.33 16.70 169.02 C 15.87 165.83 18.67 163.52 21.42 162.74 C 21.65 162.64 22.11 162.43 22.34 162.33 M 20.31 164.38 C 15.79 165.68 18.01 173.30 22.56 171.61 C 26.80 170.19 24.73 162.87 20.31 164.38 Z" />
<path fill="#1d1815" opacity="1.00" d=" M 102.17 161.10 C 101.85 157.85 101.36 154.62 101.31 151.35 C 102.50 155.14 103.22 159.05 103.84 162.97 C 104.34 162.88 105.34 162.71 105.84 162.62 C 108.83 163.58 111.62 166.59 110.13 169.90 C 109.27 172.71 106.02 172.76 103.68 173.42 C 102.71 172.01 101.70 170.60 101.02 169.01 C 101.12 166.34 102.47 163.81 102.17 161.10 M 105.25 164.25 C 100.77 164.77 101.46 172.27 106.02 171.79 C 110.76 171.52 109.99 163.50 105.25 164.25 Z" />
<path fill="#1d1815" opacity="1.00" d=" M 56.82 161.64 C 58.21 161.95 60.25 161.41 60.80 163.19 C 62.00 165.27 58.83 167.55 57.04 166.01 C 55.55 164.87 56.55 163.09 56.82 161.64 Z" />
<path fill="#1d1815" opacity="1.00" d=" M 57.07 174.96 C 58.48 174.53 60.36 174.57 60.84 176.28 C 61.94 178.29 58.70 180.70 57.05 178.99 C 55.65 178.00 56.06 176.06 57.07 174.96 Z" />
<path fill="#1d1815" opacity="1.00" d=" M 20.22 194.69 C 31.51 191.53 43.58 190.52 55.12 192.95 C 58.33 193.59 61.52 194.84 64.85 194.42 C 79.13 192.27 94.00 190.76 108.19 194.24 C 110.87 194.98 113.42 196.12 115.87 197.42 C 84.26 197.75 52.64 197.46 21.02 197.57 C 18.17 197.59 15.31 197.56 12.47 197.39 C 15.01 196.39 17.59 195.46 20.22 194.69 Z" />
</g>
<g id="#733f39ff">
<path fill="#733f39" opacity="1.00" d=" M 106.77 125.36 C 106.94 125.19 107.12 125.02 107.29 124.85 C 114.61 136.55 120.86 149.34 122.21 163.26 C 119.70 161.67 117.16 159.69 114.06 159.58 C 110.97 159.29 108.45 161.33 105.84 162.62 C 105.34 162.71 104.34 162.88 103.84 162.97 C 103.22 159.05 102.50 155.14 101.31 151.35 C 101.36 154.62 101.85 157.85 102.17 161.10 C 102.47 163.81 101.12 166.34 101.02 169.01 C 101.70 170.60 102.71 172.01 103.68 173.42 C 105.09 175.34 106.66 177.16 108.52 178.66 L 108.25 178.71 C 93.92 181.80 79.47 184.45 64.80 185.24 C 64.54 172.64 65.25 160.01 64.41 147.43 C 63.62 148.81 63.33 150.40 63.40 151.98 C 63.53 163.08 63.52 174.19 63.43 185.30 C 48.93 185.73 34.25 184.84 20.22 180.97 C 19.00 180.61 17.79 180.24 16.59 179.84 C 19.50 178.51 21.57 176.03 23.35 173.46 C 24.38 171.72 26.08 170.13 26.18 168.01 C 25.51 165.32 23.42 162.89 24.04 159.98 C 24.38 156.85 25.06 153.77 25.45 150.65 C 23.75 154.34 23.12 158.37 22.34 162.33 C 22.11 162.43 21.65 162.64 21.42 162.74 C 19.03 161.55 16.80 159.71 14.03 159.59 C 10.87 159.43 8.11 161.20 5.39 162.53 C 8.02 149.38 12.09 135.87 20.68 125.31 C 22.53 130.36 26.94 133.77 31.14 136.81 C 39.22 142.35 48.63 146.49 58.43 147.37 C 63.90 146.09 69.45 148.29 74.86 146.70 C 85.88 143.93 96.59 138.76 104.49 130.43 C 105.90 129.10 106.36 127.18 106.77 125.36 M 58.10 150.15 C 56.44 150.79 56.86 152.76 56.58 154.15 C 57.79 154.30 59.21 155.34 60.35 154.41 C 62.87 153.16 60.53 148.77 58.10 150.15 M 56.82 161.64 C 56.55 163.09 55.55 164.87 57.04 166.01 C 58.83 167.55 62.00 165.27 60.80 163.19 C 60.25 161.41 58.21 161.95 56.82 161.64 M 57.07 174.96 C 56.06 176.06 55.65 178.00 57.05 178.99 C 58.70 180.70 61.94 178.29 60.84 176.28 C 60.36 174.57 58.48 174.53 57.07 174.96 Z" />
</g>
</svg>
