<?xml version="1.0" encoding="UTF-8" ?>
<!DOCTYPE svg PUBLIC "-//W3C//DTD SVG 1.1//EN" "http://www.w3.org/Graphics/SVG/1.1/DTD/svg11.dtd">
<svg width="166pt" height="192pt" viewBox="0 0 166 192" version="1.1" xmlns="http://www.w3.org/2000/svg">
<g id="#fbf551ff">
<path fill="#fbf551" opacity="1.00" d=" M 51.82 0.94 C 58.07 8.39 66.98 14.48 77.07 14.22 C 87.82 10.66 101.08 9.14 110.70 16.30 C 120.63 16.67 130.67 15.48 140.05 12.12 C 137.95 14.62 134.43 16.02 133.10 19.04 C 138.94 18.96 144.24 21.52 149.52 23.67 C 154.41 25.67 159.86 24.57 164.58 22.62 C 163.49 25.85 161.69 28.85 158.99 30.97 C 151.44 37.09 141.62 39.02 132.33 40.81 C 138.89 43.49 145.96 44.18 152.85 45.54 C 151.47 46.27 150.18 47.16 148.96 48.14 C 149.09 48.53 149.34 49.31 149.46 49.71 C 153.54 52.14 158.50 52.10 163.09 52.52 C 158.96 56.55 153.53 58.79 148.20 60.76 C 153.62 67.03 159.71 72.66 166.00 78.03 L 166.00 81.38 C 159.66 81.67 153.37 80.35 147.40 78.29 C 151.17 85.32 154.78 92.43 158.54 99.46 C 155.96 98.11 153.15 97.18 150.22 97.12 C 150.22 104.89 154.46 111.69 157.87 118.40 C 152.33 113.85 146.21 108.72 138.71 108.45 C 138.66 113.99 138.74 119.53 138.66 125.07 C 134.68 124.35 130.96 121.78 126.97 121.82 C 135.68 113.05 141.46 101.34 142.90 89.05 C 143.92 85.13 139.70 83.11 138.30 80.00 C 138.61 77.78 139.80 75.77 139.97 73.51 C 137.74 73.21 135.52 72.83 133.38 72.17 C 133.29 68.55 134.16 64.91 133.67 61.32 C 131.77 57.12 129.46 53.11 127.42 48.97 C 124.75 51.65 124.49 56.26 121.31 58.34 C 120.87 55.15 120.63 51.94 120.28 48.74 C 119.92 44.48 117.75 40.70 115.85 36.96 C 113.11 38.84 110.95 41.45 108.06 43.14 C 105.72 39.39 104.41 35.15 103.08 30.98 C 99.49 33.06 99.14 38.34 96.09 41.13 C 94.22 36.62 93.69 31.73 92.85 26.96 C 89.73 29.95 87.70 33.80 85.10 37.22 C 81.27 35.32 77.79 32.82 74.08 30.71 C 73.79 29.04 72.20 26.51 70.33 27.04 C 70.19 28.85 72.33 29.86 73.53 30.86 C 70.34 33.95 68.16 37.99 64.79 40.87 C 61.54 40.62 58.61 38.84 55.41 38.22 C 53.67 44.64 52.70 51.23 51.32 57.73 C 48.29 58.13 47.08 53.75 44.33 52.72 C 43.54 61.14 43.50 69.61 42.63 78.03 C 40.33 75.62 38.56 72.79 36.60 70.12 C 33.38 75.94 30.42 81.94 27.69 88.00 C 28.42 100.98 35.23 112.70 43.57 122.34 C 41.58 123.32 39.58 124.29 37.52 125.09 C 36.23 121.87 36.23 118.14 34.44 115.17 C 31.92 116.90 29.33 118.54 26.65 120.03 C 26.68 113.97 26.90 107.92 26.86 101.86 C 21.55 101.11 16.29 100.11 11.01 99.23 C 16.26 92.81 21.29 86.12 24.81 78.57 C 17.16 75.89 8.89 76.00 0.89 75.40 C 1.07 75.23 1.42 74.90 1.59 74.74 C 10.63 70.16 19.50 64.97 26.88 57.93 C 24.78 56.63 22.51 55.58 20.04 55.27 C 18.13 54.75 15.10 54.77 15.00 52.14 C 22.68 49.11 30.17 45.60 37.86 42.60 C 30.43 37.74 24.35 30.40 22.25 21.65 C 32.38 24.50 43.06 23.24 53.26 21.48 C 49.79 15.25 49.96 7.64 51.82 0.94 M 51.32 35.15 C 50.70 36.74 53.49 38.15 54.80 37.93 C 55.16 36.28 52.68 35.14 51.32 35.15 M 24.30 92.96 C 25.62 92.09 26.48 90.78 26.99 89.31 C 26.49 89.46 25.49 89.76 24.98 89.91 C 24.89 88.23 24.79 86.55 24.61 84.88 C 23.66 87.44 24.50 90.28 24.30 92.96 Z" />
</g>
<g id="#7e8577ff">
<path fill="#7e8577" opacity="1.00" d=" M 70.33 27.04 C 72.20 26.51 73.79 29.04 74.08 30.71 L 73.53 30.86 C 72.33 29.86 70.19 28.85 70.33 27.04 Z" />
<path fill="#7e8577" opacity="1.00" d=" M 51.32 35.15 C 52.68 35.14 55.16 36.28 54.80 37.93 C 53.49 38.15 50.70 36.74 51.32 35.15 Z" />
<path fill="#7e8577" opacity="1.00" d=" M 24.30 92.96 C 24.50 90.28 23.66 87.44 24.61 84.88 C 24.79 86.55 24.89 88.23 24.98 89.91 C 25.49 89.76 26.49 89.46 26.99 89.31 C 26.48 90.78 25.62 92.09 24.30 92.96 Z" />
<path fill="#7e8577" opacity="1.00" d=" M 89.96 139.23 C 103.81 138.09 117.47 132.06 126.97 121.82 L 126.48 123.01 C 133.47 134.09 141.10 145.56 142.96 158.81 C 140.03 154.54 134.30 152.97 129.59 155.17 C 128.49 155.08 127.39 155.12 126.49 155.84 C 125.95 152.13 125.78 147.97 123.23 144.99 C 123.56 148.68 124.82 152.23 125.00 155.94 C 124.21 157.75 122.02 158.82 121.98 160.99 C 121.70 162.89 123.22 164.27 124.39 165.52 C 125.07 171.37 131.69 174.51 137.05 173.25 C 134.26 173.72 131.39 173.36 128.61 173.96 C 113.23 173.12 97.76 173.96 82.34 173.54 C 81.16 175.43 81.91 177.72 81.92 179.80 C 81.82 180.06 81.64 180.57 81.54 180.83 C 69.02 180.40 56.50 178.60 44.35 175.51 C 43.02 175.11 41.69 174.67 40.37 174.21 C 40.37 173.28 40.23 172.38 39.94 171.51 C 41.83 170.09 43.63 167.88 43.60 165.27 C 46.08 162.98 45.05 159.73 44.04 157.02 C 44.13 154.25 45.04 151.55 44.84 148.76 C 43.30 151.08 42.91 153.86 42.45 156.53 C 41.54 156.57 40.64 156.62 39.74 156.68 C 34.93 152.60 27.11 155.28 25.05 161.03 C 27.61 146.78 34.02 133.23 43.82 122.54 C 44.70 123.22 45.57 123.92 46.42 124.64 C 58.07 135.27 74.29 140.48 89.96 139.23 M 79.39 145.45 C 77.51 147.62 81.60 150.31 82.86 147.82 C 84.19 145.70 80.89 143.45 79.39 145.45 M 77.50 155.09 C 77.85 158.14 81.39 156.57 81.93 154.50 C 83.68 154.35 85.40 154.88 87.11 155.18 C 86.73 152.59 83.19 152.14 81.68 154.02 C 80.45 152.36 76.84 152.22 77.50 155.09 M 80.69 157.29 C 79.82 159.97 78.66 163.17 80.09 165.84 C 84.94 166.25 86.82 155.56 80.69 157.29 M 85.66 159.97 C 87.45 160.11 89.27 160.19 91.04 159.74 C 90.92 159.45 90.69 158.87 90.57 158.58 C 88.87 158.73 86.00 157.45 85.66 159.97 M 76.97 166.85 C 76.40 168.47 76.62 171.01 78.99 170.54 C 80.50 169.83 80.88 168.57 80.13 166.76 C 79.34 166.78 77.76 166.83 76.97 166.85 M 76.40 175.31 C 74.80 177.92 79.62 179.77 80.10 177.01 C 81.04 174.55 77.76 173.63 76.40 175.31 Z" />
</g>
<g id="#f6d6b2ff">
<path fill="#f6d6b2" opacity="1.00" d=" M 85.10 37.22 C 87.70 33.80 89.73 29.95 92.85 26.96 C 93.69 31.73 94.22 36.62 96.09 41.13 C 99.14 38.34 99.49 33.06 103.08 30.98 C 104.41 35.15 105.72 39.39 108.06 43.14 C 110.95 41.45 113.11 38.84 115.85 36.96 C 117.75 40.70 119.92 44.48 120.28 48.74 C 120.63 51.94 120.87 55.15 121.31 58.34 C 124.49 56.26 124.75 51.65 127.42 48.97 C 129.46 53.11 131.77 57.12 133.67 61.32 C 134.16 64.91 133.29 68.55 133.38 72.17 C 135.52 72.83 137.74 73.21 139.97 73.51 C 139.80 75.77 138.61 77.78 138.30 80.00 C 139.70 83.11 143.92 85.13 142.90 89.05 C 141.46 101.34 135.68 113.05 126.97 121.82 C 117.47 132.06 103.81 138.09 89.96 139.23 C 74.29 140.48 58.07 135.27 46.42 124.64 C 45.57 123.92 44.70 123.22 43.82 122.54 C 43.76 122.49 43.63 122.39 43.57 122.34 C 35.23 112.70 28.42 100.98 27.69 88.00 C 30.42 81.94 33.38 75.94 36.60 70.12 C 38.56 72.79 40.33 75.62 42.63 78.03 C 43.50 69.61 43.54 61.14 44.33 52.72 C 47.08 53.75 48.29 58.13 51.32 57.73 C 52.70 51.23 53.67 44.64 55.41 38.22 C 58.61 38.84 61.54 40.62 64.79 40.87 C 68.16 37.99 70.34 33.95 73.53 30.86 L 74.08 30.71 C 77.79 32.82 81.27 35.32 85.10 37.22 M 64.53 56.40 C 63.21 57.50 60.80 57.99 60.77 60.07 L 62.08 60.41 C 66.93 57.53 71.59 54.32 76.38 51.34 C 77.31 50.66 80.14 49.37 77.93 48.16 C 73.21 50.33 69.05 53.76 64.53 56.40 M 96.32 48.54 L 96.20 49.82 C 100.88 53.59 105.72 57.15 110.40 60.91 C 111.24 62.75 113.95 60.81 112.37 59.73 C 107.49 55.89 102.54 52.13 97.66 48.29 L 96.32 48.54 M 67.38 66.50 C 58.71 68.91 52.77 77.40 51.64 86.06 C 50.68 94.54 58.28 103.14 66.95 102.40 C 77.28 101.60 86.17 91.33 84.98 80.94 C 85.94 76.07 83.88 71.03 80.02 67.99 C 76.36 65.48 71.54 65.54 67.38 66.50 M 95.47 66.57 C 89.50 68.46 85.78 74.92 86.51 81.05 C 85.17 90.90 92.31 100.94 101.97 103.09 C 108.86 104.61 116.09 100.10 118.60 93.70 C 121.20 86.83 118.59 79.24 114.35 73.65 C 110.03 68.01 102.46 65.00 95.47 66.57 M 77.30 120.40 C 77.05 120.82 76.56 121.66 76.32 122.08 C 82.20 124.68 89.07 124.96 95.41 124.32 C 95.29 122.46 93.55 121.35 92.07 120.57 C 87.53 118.41 81.83 118.09 77.30 120.40 Z" />
<path fill="#f6d6b2" opacity="1.00" d=" M 129.59 155.17 C 134.30 152.97 140.03 154.54 142.96 158.81 C 146.30 164.19 143.06 171.62 137.05 173.25 C 131.69 174.51 125.07 171.37 124.39 165.52 C 127.31 167.25 131.63 165.46 131.95 161.98 C 132.48 159.59 130.62 157.87 129.07 156.40 C 129.20 156.10 129.46 155.48 129.59 155.17 Z" />
<path fill="#f6d6b2" opacity="1.00" d=" M 25.05 161.03 C 27.11 155.28 34.93 152.60 39.74 156.68 C 35.80 157.33 34.70 162.97 37.84 165.24 C 39.51 166.69 41.80 166.20 43.60 165.27 C 43.63 167.88 41.83 170.09 39.94 171.51 C 33.19 177.56 21.59 169.46 25.05 161.03 Z" />
<path fill="#f6d6b2" opacity="1.00" d=" M 39.17 158.19 C 41.20 157.38 43.83 158.67 43.85 161.00 C 44.53 163.97 40.28 166.35 38.27 163.89 C 36.49 162.29 37.12 159.21 39.17 158.19 Z" />
<path fill="#f6d6b2" opacity="1.00" d=" M 80.69 157.29 C 86.82 155.56 84.94 166.25 80.09 165.84 C 78.66 163.17 79.82 159.97 80.69 157.29 Z" />
<path fill="#f6d6b2" opacity="1.00" d=" M 125.31 158.21 C 128.15 156.38 132.12 159.85 130.40 162.84 C 129.27 165.51 125.07 165.56 123.92 162.92 C 122.86 161.31 123.81 159.15 125.31 158.21 Z" />
<path fill="#f6d6b2" opacity="1.00" d=" M 82.34 173.54 C 97.76 173.96 113.23 173.12 128.61 173.96 C 128.31 174.03 127.70 174.15 127.39 174.21 C 112.46 177.51 97.22 179.54 81.92 179.80 C 81.91 177.72 81.16 175.43 82.34 173.54 Z" />
</g>
<g id="#393a4fff">
<path fill="#393a4f" opacity="1.00" d=" M 64.53 56.40 C 69.05 53.76 73.21 50.33 77.93 48.16 C 80.14 49.37 77.31 50.66 76.38 51.34 C 71.59 54.32 66.93 57.53 62.08 60.41 L 60.77 60.07 C 60.80 57.99 63.21 57.50 64.53 56.40 Z" />
<path fill="#393a4f" opacity="1.00" d=" M 96.32 48.54 L 97.66 48.29 C 102.54 52.13 107.49 55.89 112.37 59.73 C 113.95 60.81 111.24 62.75 110.40 60.91 C 105.72 57.15 100.88 53.59 96.20 49.82 L 96.32 48.54 Z" />
<path fill="#393a4f" opacity="1.00" d=" M 75.04 83.04 C 76.44 82.18 78.68 83.32 78.34 85.03 C 78.42 86.46 76.40 87.88 75.22 86.72 C 73.82 85.95 74.03 84.05 75.04 83.04 Z" />
<path fill="#393a4f" opacity="1.00" d=" M 93.28 83.46 C 95.41 80.91 98.54 85.33 95.83 86.73 C 93.95 88.39 91.49 84.86 93.28 83.46 Z" />
<path fill="#393a4f" opacity="1.00" d=" M 77.30 120.40 C 81.83 118.09 87.53 118.41 92.07 120.57 C 93.55 121.35 95.29 122.46 95.41 124.32 C 89.07 124.96 82.20 124.68 76.32 122.08 C 76.56 121.66 77.05 120.82 77.30 120.40 Z" />
<path fill="#393a4f" opacity="1.00" d=" M 79.39 145.45 C 80.89 143.45 84.19 145.70 82.86 147.82 C 81.60 150.31 77.51 147.62 79.39 145.45 Z" />
<path fill="#393a4f" opacity="1.00" d=" M 123.23 144.99 C 125.78 147.97 125.95 152.13 126.49 155.84 C 127.39 155.12 128.49 155.08 129.59 155.17 C 129.46 155.48 129.20 156.10 129.07 156.40 C 130.62 157.87 132.48 159.59 131.95 161.98 C 131.63 165.46 127.31 167.25 124.39 165.52 C 123.22 164.27 121.70 162.89 121.98 160.99 C 122.02 158.82 124.21 157.75 125.00 155.94 C 124.82 152.23 123.56 148.68 123.23 144.99 M 125.31 158.21 C 123.81 159.15 122.86 161.31 123.92 162.92 C 125.07 165.56 129.27 165.51 130.40 162.84 C 132.12 159.85 128.15 156.38 125.31 158.21 Z" />
<path fill="#393a4f" opacity="1.00" d=" M 42.45 156.53 C 42.91 153.86 43.30 151.08 44.84 148.76 C 45.04 151.55 44.13 154.25 44.04 157.02 C 45.05 159.73 46.08 162.98 43.60 165.27 C 41.80 166.20 39.51 166.69 37.84 165.24 C 34.70 162.97 35.80 157.33 39.74 156.68 C 40.64 156.62 41.54 156.57 42.45 156.53 M 39.17 158.19 C 37.12 159.21 36.49 162.29 38.27 163.89 C 40.28 166.35 44.53 163.97 43.85 161.00 C 43.83 158.67 41.20 157.38 39.17 158.19 Z" />
<path fill="#393a4f" opacity="1.00" d=" M 77.50 155.09 C 76.84 152.22 80.45 152.36 81.68 154.02 C 83.19 152.14 86.73 152.59 87.11 155.18 C 85.40 154.88 83.68 154.35 81.93 154.50 C 81.39 156.57 77.85 158.14 77.50 155.09 Z" />
<path fill="#393a4f" opacity="1.00" d=" M 85.66 159.97 C 86.00 157.45 88.87 158.73 90.57 158.58 C 90.69 158.87 90.92 159.45 91.04 159.74 C 89.27 160.19 87.45 160.11 85.66 159.97 Z" />
<path fill="#393a4f" opacity="1.00" d=" M 76.97 166.85 C 77.76 166.83 79.34 166.78 80.13 166.76 C 80.88 168.57 80.50 169.83 78.99 170.54 C 76.62 171.01 76.40 168.47 76.97 166.85 Z" />
<path fill="#393a4f" opacity="1.00" d=" M 76.40 175.31 C 77.76 173.63 81.04 174.55 80.10 177.01 C 79.62 179.77 74.80 177.92 76.40 175.31 Z" />
<path fill="#393a4f" opacity="1.00" d=" M 81.92 179.80 C 97.22 179.54 112.46 177.51 127.39 174.21 C 127.38 178.84 127.40 183.46 127.36 188.09 C 130.33 188.81 133.33 189.42 136.21 190.45 C 122.80 190.60 109.39 190.21 95.97 190.21 C 76.01 189.35 55.99 189.88 36.01 189.29 C 38.63 187.95 41.51 187.28 44.32 186.44 C 44.28 182.80 44.24 179.15 44.35 175.51 C 56.50 178.60 69.02 180.40 81.54 180.83 C 81.64 180.57 81.82 180.06 81.92 179.80 Z" />
</g>
<g id="#ffffffff">
<path fill="#ffffff" opacity="1.00" d=" M 67.38 66.50 C 71.54 65.54 76.36 65.48 80.02 67.99 C 83.88 71.03 85.94 76.07 84.98 80.94 C 86.17 91.33 77.28 101.60 66.95 102.40 C 58.28 103.14 50.68 94.54 51.64 86.06 C 52.77 77.40 58.71 68.91 67.38 66.50 M 75.04 83.04 C 74.03 84.05 73.82 85.95 75.22 86.72 C 76.40 87.88 78.42 86.46 78.34 85.03 C 78.68 83.32 76.44 82.18 75.04 83.04 Z" />
<path fill="#ffffff" opacity="1.00" d=" M 95.47 66.57 C 102.46 65.00 110.03 68.01 114.35 73.65 C 118.59 79.24 121.20 86.83 118.60 93.70 C 116.09 100.10 108.86 104.61 101.97 103.09 C 92.31 100.94 85.17 90.90 86.51 81.05 C 85.78 74.92 89.50 68.46 95.47 66.57 M 93.28 83.46 C 91.49 84.86 93.95 88.39 95.83 86.73 C 98.54 85.33 95.41 80.91 93.28 83.46 Z" />
</g>
</svg>
