<?xml version="1.0" encoding="UTF-8" ?>
<!DOCTYPE svg PUBLIC "-//W3C//DTD SVG 1.1//EN" "http://www.w3.org/Graphics/SVG/1.1/DTD/svg11.dtd">
<svg width="127pt" height="183pt" viewBox="0 0 127 183" version="1.1" xmlns="http://www.w3.org/2000/svg">
<g id="#1c171cff">
<path fill="#1c171c" opacity="1.00" d=" M 45.88 2.46 C 51.01 3.63 56.03 -0.05 61.07 1.87 C 66.87 3.67 72.99 4.21 79.03 3.63 C 82.86 2.96 86.33 5.05 89.98 5.79 C 94.04 7.02 98.57 6.50 102.31 8.70 C 107.08 11.01 110.16 15.50 114.00 18.98 C 118.69 22.97 118.25 29.68 120.24 35.02 C 122.74 40.10 121.36 45.90 122.67 51.27 C 120.63 48.68 118.53 46.14 116.27 43.74 C 111.84 38.80 103.96 37.98 101.03 31.52 C 98.50 30.96 95.97 30.38 93.51 29.55 C 88.35 27.51 82.54 29.25 77.44 26.91 C 76.30 27.12 75.17 27.35 74.04 27.57 C 73.11 26.91 72.19 26.24 71.27 25.57 C 65.86 25.47 60.38 24.99 55.03 26.17 C 49.87 27.53 44.69 24.95 39.54 26.24 C 35.72 27.03 31.81 26.65 27.95 26.96 C 25.31 27.06 23.84 29.53 22.15 31.19 C 18.79 35.19 14.11 37.73 10.52 41.50 C 8.26 43.83 6.19 46.36 4.41 49.07 C 4.17 43.12 4.52 37.07 6.56 31.42 C 8.24 25.82 12.22 21.28 13.85 15.66 C 18.58 13.31 22.87 10.24 27.28 7.39 C 33.11 5.92 38.86 3.53 45.00 4.20 C 45.22 3.77 45.66 2.90 45.88 2.46 Z" />
<path fill="#1c171c" opacity="1.00" d=" M 71.46 74.94 C 72.30 74.48 73.14 74.02 73.98 73.56 C 74.66 74.08 75.33 74.60 76.01 75.11 C 75.55 76.24 75.35 77.75 73.86 77.93 C 72.17 77.93 71.91 76.18 71.46 74.94 Z" />
<path fill="#1c171c" opacity="1.00" d=" M 53.48 74.48 C 54.53 74.35 55.58 74.35 56.64 74.46 C 56.41 75.74 56.73 77.65 54.99 77.92 C 54.35 77.76 53.08 77.44 52.44 77.29 C 52.78 76.35 53.02 75.37 53.48 74.48 Z" />
<path fill="#1c171c" opacity="1.00" d=" M 53.74 110.14 C 56.95 110.84 60.03 112.06 63.27 112.65 C 66.95 113.09 70.64 112.37 74.33 112.38 C 67.79 115.44 59.46 114.55 53.74 110.14 Z" />
<path fill="#1c171c" opacity="1.00" d=" M 20.97 146.78 C 21.29 142.92 22.06 139.12 23.31 135.45 C 22.91 139.18 22.42 142.90 22.26 146.66 C 23.11 148.10 24.26 149.43 24.68 151.09 C 24.36 152.99 23.38 154.70 22.50 156.39 C 20.14 155.70 16.62 155.88 15.82 152.92 C 14.58 149.92 17.26 147.68 19.48 146.25 C 19.85 146.38 20.60 146.65 20.97 146.78 M 19.13 148.15 C 17.25 148.72 16.17 151.13 17.20 152.88 C 18.18 155.32 22.03 155.36 23.06 152.94 C 24.58 150.48 21.86 147.15 19.13 148.15 Z" />
<path fill="#1c171c" opacity="1.00" d=" M 101.36 135.72 C 103.20 139.67 104.38 143.89 105.04 148.20 L 105.91 148.04 C 108.51 149.02 111.35 151.20 110.44 154.36 C 109.93 157.68 106.13 157.97 103.54 158.72 C 101.89 156.39 100.09 153.80 101.11 150.79 C 102.17 152.90 102.19 156.54 105.12 156.91 C 108.07 157.48 110.45 153.79 108.76 151.33 C 107.44 149.08 104.36 150.01 102.23 149.59 L 103.14 148.63 L 103.75 147.97 C 103.38 143.81 102.27 139.78 101.36 135.72 Z" />
<path fill="#1c171c" opacity="1.00" d=" M 20.19 179.76 C 31.99 176.49 44.66 175.48 56.62 178.58 C 63.64 180.61 70.86 178.61 77.98 178.50 C 87.94 178.20 98.01 178.08 107.81 180.14 C 110.25 180.67 112.61 181.50 114.98 182.30 C 84.34 182.68 53.68 182.34 23.04 182.47 C 19.80 182.49 16.56 182.47 13.33 182.29 C 15.58 181.33 17.85 180.44 20.19 179.76 Z" />
</g>
<g id="#725648ff">
<path fill="#725648" opacity="1.00" d=" M 39.54 26.24 C 44.69 24.95 49.87 27.53 55.03 26.17 C 60.38 24.99 65.86 25.47 71.27 25.57 C 72.19 26.24 73.11 26.91 74.04 27.57 C 75.17 27.35 76.30 27.12 77.44 26.91 C 82.54 29.25 88.35 27.51 93.51 29.55 C 95.97 30.38 98.50 30.96 101.03 31.52 C 103.96 37.98 111.84 38.80 116.27 43.74 C 118.53 46.14 120.63 48.68 122.67 51.27 C 125.10 55.73 125.49 61.00 126.13 65.97 C 127.56 83.68 119.77 101.61 106.33 113.11 C 94.74 123.26 79.38 128.89 64.00 128.80 C 47.86 129.04 31.68 123.07 19.74 112.17 C 2.34 96.98 -4.85 70.52 4.41 49.07 C 6.19 46.36 8.26 43.83 10.52 41.50 C 14.11 37.73 18.79 35.19 22.15 31.19 C 23.84 29.53 25.31 27.06 27.95 26.96 C 31.81 26.65 35.72 27.03 39.54 26.24 M 74.50 56.67 C 70.86 57.38 68.09 60.26 66.34 63.38 C 60.67 74.55 66.74 90.25 78.98 93.82 C 86.90 96.48 95.60 90.73 97.85 83.04 C 99.88 76.60 97.41 69.71 93.72 64.37 C 89.60 58.27 81.69 55.17 74.50 56.67 M 44.45 57.70 C 36.06 60.28 30.57 68.71 29.44 77.10 C 28.30 85.60 35.38 94.18 44.00 94.37 C 51.83 94.47 58.70 88.84 61.90 81.97 C 63.90 78.29 63.63 74.01 63.65 69.96 C 63.77 65.16 60.90 60.53 56.83 58.13 C 52.98 56.31 48.45 56.46 44.45 57.70 M 53.74 110.14 C 59.46 114.55 67.79 115.44 74.33 112.38 C 70.64 112.37 66.95 113.09 63.27 112.65 C 60.03 112.06 56.95 110.84 53.74 110.14 Z" />
<path fill="#725648" opacity="1.00" d=" M 4.98 147.56 C 8.99 143.76 14.78 143.73 19.48 146.25 C 17.26 147.68 14.58 149.92 15.82 152.92 C 16.62 155.88 20.14 155.70 22.50 156.39 C 21.27 158.85 19.34 160.87 16.68 161.77 C 17.09 162.85 17.51 163.93 17.98 164.99 C 16.50 165.16 16.03 163.61 15.45 162.60 C 12.07 163.06 8.29 162.73 5.83 160.09 C 2.17 157.01 2.42 151.25 4.98 147.56 Z" />
<path fill="#725648" opacity="1.00" d=" M 105.91 148.04 C 108.60 147.52 111.23 146.60 113.99 146.49 C 116.40 146.64 118.50 148.01 120.48 149.27 C 123.71 153.09 123.82 159.51 119.71 162.76 C 116.47 165.82 111.76 165.48 107.83 164.20 L 107.43 164.11 C 106.06 162.36 104.78 160.55 103.54 158.72 C 106.13 157.97 109.93 157.68 110.44 154.36 C 111.35 151.20 108.51 149.02 105.91 148.04 Z" />
<path fill="#725648" opacity="1.00" d=" M 19.13 148.15 C 21.86 147.15 24.58 150.48 23.06 152.94 C 22.03 155.36 18.18 155.32 17.20 152.88 C 16.17 151.13 17.25 148.72 19.13 148.15 Z" />
<path fill="#725648" opacity="1.00" d=" M 101.11 150.79 C 101.77 150.06 102.45 149.34 103.14 148.63 L 102.23 149.59 C 104.36 150.01 107.44 149.08 108.76 151.33 C 110.45 153.79 108.07 157.48 105.12 156.91 C 102.19 156.54 102.17 152.90 101.11 150.79 Z" />
</g>
<g id="#ffffffff">
<path fill="#ffffff" opacity="1.00" d=" M 74.50 56.67 C 81.69 55.17 89.60 58.27 93.72 64.37 C 97.41 69.71 99.88 76.60 97.85 83.04 C 95.60 90.73 86.90 96.48 78.98 93.82 C 66.74 90.25 60.67 74.55 66.34 63.38 C 68.09 60.26 70.86 57.38 74.50 56.67 M 71.46 74.94 C 71.91 76.18 72.17 77.93 73.86 77.93 C 75.35 77.75 75.55 76.24 76.01 75.11 C 75.33 74.60 74.66 74.08 73.98 73.56 C 73.14 74.02 72.30 74.48 71.46 74.94 Z" />
<path fill="#ffffff" opacity="1.00" d=" M 44.45 57.70 C 48.45 56.46 52.98 56.31 56.83 58.13 C 60.90 60.53 63.77 65.16 63.65 69.96 C 63.63 74.01 63.90 78.29 61.90 81.97 C 58.70 88.84 51.83 94.47 44.00 94.37 C 35.38 94.18 28.30 85.60 29.44 77.10 C 30.57 68.71 36.06 60.28 44.45 57.70 M 53.48 74.48 C 53.02 75.37 52.78 76.35 52.44 77.29 C 53.08 77.44 54.35 77.76 54.99 77.92 C 56.73 77.65 56.41 75.74 56.64 74.46 C 55.58 74.35 54.53 74.35 53.48 74.48 Z" />
</g>
<g id="#a375adff">
<path fill="#a375ad" opacity="1.00" d=" M 4.98 147.56 C 6.31 134.63 12.11 122.55 19.74 112.17 C 31.68 123.07 47.86 129.04 64.00 128.80 C 79.38 128.89 94.74 123.26 106.33 113.11 C 112.70 124.33 119.93 136.02 120.48 149.27 C 118.50 148.01 116.40 146.64 113.99 146.49 C 111.23 146.60 108.60 147.52 105.91 148.04 L 105.04 148.20 C 104.38 143.89 103.20 139.67 101.36 135.72 C 102.27 139.78 103.38 143.81 103.75 147.97 L 103.14 148.63 C 102.45 149.34 101.77 150.06 101.11 150.79 C 100.09 153.80 101.89 156.39 103.54 158.72 C 104.78 160.55 106.06 162.36 107.43 164.11 C 78.19 170.97 47.27 172.31 17.98 164.99 C 17.51 163.93 17.09 162.85 16.68 161.77 C 19.34 160.87 21.27 158.85 22.50 156.39 C 23.38 154.70 24.36 152.99 24.68 151.09 C 24.26 149.43 23.11 148.10 22.26 146.66 C 22.42 142.90 22.91 139.18 23.31 135.45 C 22.06 139.12 21.29 142.92 20.97 146.78 C 20.60 146.65 19.85 146.38 19.48 146.25 C 14.78 143.73 8.99 143.76 4.98 147.56 M 55.28 139.11 C 57.69 139.15 60.10 139.15 62.50 139.16 C 62.68 145.19 62.13 151.21 61.07 157.15 C 63.60 157.16 66.13 157.15 68.66 157.17 C 68.02 151.15 68.31 145.09 68.89 139.08 C 70.60 139.36 72.31 139.65 74.02 139.94 C 74.33 138.45 74.64 136.97 74.96 135.48 C 69.23 134.72 63.44 134.15 57.66 134.55 C 56.64 135.94 56.00 137.56 55.28 139.11 Z" />
</g>
<g id="#faec4eff">
<path fill="#faec4e" opacity="1.00" d=" M 55.28 139.11 C 56.00 137.56 56.64 135.94 57.66 134.55 C 63.44 134.15 69.23 134.72 74.96 135.48 C 74.64 136.97 74.33 138.45 74.02 139.94 C 72.31 139.65 70.60 139.36 68.89 139.08 C 68.31 145.09 68.02 151.15 68.66 157.17 C 66.13 157.15 63.60 157.16 61.07 157.15 C 62.13 151.21 62.68 145.19 62.50 139.16 C 60.10 139.15 57.69 139.15 55.28 139.11 Z" />
</g>
<g id="#3b3d51ff">
<path fill="#3b3d51" opacity="1.00" d=" M 17.98 164.99 C 47.27 172.31 78.19 170.97 107.43 164.11 L 107.83 164.20 C 107.81 169.51 107.83 174.82 107.81 180.14 C 98.01 178.08 87.94 178.20 77.98 178.50 C 70.86 178.61 63.64 180.61 56.62 178.58 C 44.66 175.48 31.99 176.49 20.19 179.76 C 20.21 175.45 20.22 171.14 20.17 166.83 C 19.40 166.26 18.67 165.65 17.98 164.99 Z" />
</g>
</svg>
