<?xml version="1.0" encoding="UTF-8" ?>
<!DOCTYPE svg PUBLIC "-//W3C//DTD SVG 1.1//EN" "http://www.w3.org/Graphics/SVG/1.1/DTD/svg11.dtd">
<svg width="208pt" height="190pt" viewBox="0 0 208 190" version="1.1" xmlns="http://www.w3.org/2000/svg">
<g id="#faec4eff">
<path fill="#faec4e" opacity="1.00" d=" M 101.77 2.23 C 105.56 -0.05 110.84 1.58 113.93 4.45 C 117.42 4.55 121.73 5.96 122.35 9.92 L 122.37 10.82 C 121.59 11.71 120.81 12.60 120.04 13.49 C 116.27 13.20 112.44 13.22 108.78 14.30 C 105.98 15.30 103.19 14.14 100.60 13.11 C 97.91 13.92 95.23 14.78 92.55 15.62 C 92.20 13.88 91.83 12.15 91.46 10.42 C 89.74 11.76 88.13 13.31 86.12 14.20 C 84.02 14.57 81.87 14.55 79.75 14.65 C 79.01 13.80 78.27 12.95 77.53 12.11 C 78.90 9.94 80.25 7.26 83.11 6.94 C 87.15 6.35 89.78 2.43 93.91 2.30 C 96.52 2.06 99.15 2.21 101.77 2.23 Z" />
<path fill="#faec4e" opacity="1.00" d=" M 69.15 47.18 C 104.19 36.70 142.96 39.29 176.28 54.33 C 178.17 55.34 179.18 57.46 178.46 59.55 C 170.92 56.99 163.28 54.76 155.63 52.55 C 126.11 44.25 94.12 44.39 64.92 53.96 C 52.27 57.91 40.58 64.30 28.22 69.00 L 26.40 69.73 C 26.32 68.25 26.41 66.78 26.67 65.31 C 27.27 65.00 28.45 64.38 29.05 64.07 C 42.14 57.83 55.14 51.15 69.15 47.18 Z" />
<path fill="#faec4e" opacity="1.00" d=" M 182.33 115.55 C 187.38 114.70 192.39 113.38 197.54 113.32 C 199.21 113.37 200.71 114.22 202.25 114.80 C 204.72 120.56 206.29 126.74 206.61 133.01 C 206.60 135.10 206.83 137.56 205.08 139.08 C 202.75 141.04 200.00 142.49 197.25 143.78 C 191.48 145.84 186.84 141.08 181.84 139.19 C 178.17 138.59 174.41 139.01 170.72 138.49 C 170.75 136.67 170.77 134.85 170.81 133.02 C 172.77 130.94 174.72 128.74 175.64 125.98 C 176.99 122.00 179.69 118.74 182.33 115.55 Z" />
<path fill="#faec4e" opacity="1.00" d=" M 0.51 129.06 C 0.51 124.33 4.08 120.65 8.02 118.58 C 16.80 117.59 24.39 123.11 31.46 127.51 C 36.43 130.49 40.11 135.42 40.92 141.24 C 38.89 142.84 36.85 144.80 34.10 144.93 C 27.72 145.66 21.26 145.54 14.89 146.53 C 6.15 146.63 -0.07 137.29 0.51 129.06 Z" />
</g>
<g id="#64c3b1ff">
<path fill="#64c3b1" opacity="1.00" d=" M 86.12 14.20 C 88.13 13.31 89.74 11.76 91.46 10.42 C 91.83 12.15 92.20 13.88 92.55 15.62 C 95.23 14.78 97.91 13.92 100.60 13.11 C 103.19 14.14 105.98 15.30 108.78 14.30 C 112.44 13.22 116.27 13.20 120.04 13.49 C 120.81 12.60 121.59 11.71 122.37 10.82 L 123.09 10.61 C 123.80 10.63 125.24 10.66 125.95 10.68 C 148.92 15.94 169.74 32.47 177.65 55.01 L 176.28 54.33 C 142.96 39.29 104.19 36.70 69.15 47.18 C 55.14 51.15 42.14 57.83 29.05 64.07 L 28.07 64.53 C 28.45 52.78 34.72 41.99 42.46 33.46 C 51.86 23.24 64.27 16.04 77.53 12.11 C 78.27 12.95 79.01 13.80 79.75 14.65 C 81.87 14.55 84.02 14.57 86.12 14.20 Z" />
<path fill="#64c3b1" opacity="1.00" d=" M 94.38 118.83 C 99.25 119.40 104.10 120.36 109.02 120.14 C 113.91 120.01 118.66 118.68 123.54 118.44 C 116.64 120.85 109.19 121.07 101.96 120.64 C 99.33 120.57 96.81 119.79 94.38 118.83 Z" />
</g>
<g id="#f6d6b2ff">
<path fill="#f6d6b2" opacity="1.00" d=" M 64.92 53.96 C 94.12 44.39 126.11 44.25 155.63 52.55 C 163.28 54.76 170.92 56.99 178.46 59.55 C 179.71 71.06 179.92 83.42 174.33 93.92 C 162.76 115.99 138.70 129.57 114.36 132.07 L 112.92 132.22 C 95.83 133.61 78.17 130.82 62.75 123.18 C 49.59 116.69 38.82 105.55 33.06 92.03 C 30.23 84.75 27.72 76.83 28.22 69.00 C 40.58 64.30 52.27 57.91 64.92 53.96 M 87.25 49.30 C 81.75 50.60 76.85 54.09 73.82 58.86 C 70.34 64.15 67.65 70.63 69.09 77.05 C 70.60 84.37 77.44 90.31 84.97 90.42 C 91.80 90.43 98.15 86.49 102.16 81.13 C 104.53 77.78 106.95 73.94 106.59 69.65 C 106.38 66.20 106.88 62.75 106.67 59.31 C 105.61 55.35 102.91 51.73 99.27 49.79 C 95.48 48.26 91.18 48.47 87.25 49.30 M 119.45 49.72 C 113.18 50.60 108.13 56.65 108.09 62.93 C 108.01 67.50 107.16 72.41 109.33 76.66 C 112.70 84.38 120.24 90.87 128.97 90.85 C 137.29 91.16 144.85 84.20 145.94 76.08 C 146.83 69.75 144.04 63.53 140.45 58.47 C 135.79 51.94 127.36 48.42 119.45 49.72 M 121.30 124.50 C 112.75 126.97 103.77 126.17 95.03 125.49 C 86.62 124.42 78.22 122.76 70.25 119.83 C 60.46 115.58 52.94 107.60 43.57 102.63 C 46.99 105.57 50.92 107.82 54.50 110.56 C 60.37 114.76 66.17 119.46 73.24 121.48 C 81.30 123.93 89.61 125.61 98.00 126.36 C 105.48 126.63 113.16 127.31 120.48 125.29 C 133.30 121.97 145.12 115.55 155.90 107.97 C 159.84 105.09 163.94 102.33 167.20 98.66 C 153.47 109.68 138.48 119.83 121.30 124.50 M 96.26 110.98 C 100.15 110.45 104.03 109.39 107.98 109.92 C 112.24 110.25 116.17 112.07 120.28 113.06 C 117.25 109.89 112.61 109.39 108.51 108.68 C 104.39 108.41 99.60 108.05 96.26 110.98 M 94.38 118.83 C 96.81 119.79 99.33 120.57 101.96 120.64 C 109.19 121.07 116.64 120.85 123.54 118.44 C 118.66 118.68 113.91 120.01 109.02 120.14 C 104.10 120.36 99.25 119.40 94.38 118.83 Z" />
</g>
<g id="#ffffffff">
<path fill="#ffffff" opacity="1.00" d=" M 87.25 49.30 C 91.18 48.47 95.48 48.26 99.27 49.79 C 102.91 51.73 105.61 55.35 106.67 59.31 C 106.88 62.75 106.38 66.20 106.59 69.65 C 106.95 73.94 104.53 77.78 102.16 81.13 C 98.15 86.49 91.80 90.43 84.97 90.42 C 77.44 90.31 70.60 84.37 69.09 77.05 C 67.65 70.63 70.34 64.15 73.82 58.86 C 76.85 54.09 81.75 50.60 87.25 49.30 M 92.77 69.13 C 93.53 70.05 94.81 70.06 95.85 70.48 C 96.24 69.79 97.02 68.41 97.41 67.71 C 96.48 66.71 95.54 65.47 93.97 65.72 C 92.77 66.47 92.45 67.83 92.77 69.13 Z" />
<path fill="#ffffff" opacity="1.00" d=" M 119.45 49.72 C 127.36 48.42 135.79 51.94 140.45 58.47 C 144.04 63.53 146.83 69.75 145.94 76.08 C 144.85 84.20 137.29 91.16 128.97 90.85 C 120.24 90.87 112.70 84.38 109.33 76.66 C 107.16 72.41 108.01 67.50 108.09 62.93 C 108.13 56.65 113.18 50.60 119.45 49.72 M 117.44 66.47 C 114.84 67.28 116.40 71.87 118.91 70.70 C 121.74 69.96 120.14 65.08 117.44 66.47 Z" />
</g>
<g id="#3e3c49ff">
<path fill="#3e3c49" opacity="1.00" d=" M 92.77 69.13 C 92.45 67.83 92.77 66.47 93.97 65.72 C 95.54 65.47 96.48 66.71 97.41 67.71 C 97.02 68.41 96.24 69.79 95.85 70.48 C 94.81 70.06 93.53 70.05 92.77 69.13 Z" />
<path fill="#3e3c49" opacity="1.00" d=" M 117.44 66.47 C 120.14 65.08 121.74 69.96 118.91 70.70 C 116.40 71.87 114.84 67.28 117.44 66.47 Z" />
<path fill="#3e3c49" opacity="1.00" d=" M 121.30 124.50 C 138.48 119.83 153.47 109.68 167.20 98.66 C 163.94 102.33 159.84 105.09 155.90 107.97 C 145.12 115.55 133.30 121.97 120.48 125.29 C 113.16 127.31 105.48 126.63 98.00 126.36 C 89.61 125.61 81.30 123.93 73.24 121.48 C 66.17 119.46 60.37 114.76 54.50 110.56 C 50.92 107.82 46.99 105.57 43.57 102.63 C 52.94 107.60 60.46 115.58 70.25 119.83 C 78.22 122.76 86.62 124.42 95.03 125.49 C 103.77 126.17 112.75 126.97 121.30 124.50 Z" />
<path fill="#3e3c49" opacity="1.00" d=" M 96.26 110.98 C 99.60 108.05 104.39 108.41 108.51 108.68 C 112.61 109.39 117.25 109.89 120.28 113.06 C 116.17 112.07 112.24 110.25 107.98 109.92 C 104.03 109.39 100.15 110.45 96.26 110.98 Z" />
<path fill="#3e3c49" opacity="1.00" d=" M 107.29 138.58 C 107.37 136.95 105.99 133.23 108.66 133.39 C 110.17 134.46 109.28 136.73 109.52 138.32 C 108.96 138.38 107.85 138.51 107.29 138.58 Z" />
<path fill="#3e3c49" opacity="1.00" d=" M 109.26 151.40 C 109.81 151.48 110.90 151.63 111.45 151.71 C 111.38 153.37 111.73 155.18 110.83 156.70 C 107.98 156.86 109.16 153.14 109.26 151.40 Z" />
<path fill="#3e3c49" opacity="1.00" d=" M 109.04 174.73 C 106.37 173.10 106.31 169.61 109.08 168.04 C 109.73 170.24 109.67 172.53 109.04 174.73 Z" />
<path fill="#3e3c49" opacity="1.00" d=" M 29.40 187.42 C 44.17 185.11 59.05 183.19 74.03 183.15 C 82.03 183.14 90.14 183.08 97.98 184.95 C 101.56 185.76 105.26 186.91 108.96 186.07 C 131.72 181.37 155.84 180.51 178.27 187.33 C 179.30 187.62 181.35 188.20 182.37 188.49 C 171.96 189.23 161.51 188.54 151.09 189.10 C 120.41 189.27 89.73 189.31 59.06 189.25 C 47.44 189.15 35.80 189.36 24.22 188.28 C 25.94 187.96 27.67 187.68 29.40 187.42 Z" />
</g>
<g id="#ea3340ff">
<path fill="#ea3340" opacity="1.00" d=" M 8.02 118.58 C 14.51 108.28 22.10 97.90 33.06 92.03 C 38.82 105.55 49.59 116.69 62.75 123.18 C 78.17 130.82 95.83 133.61 112.92 132.22 C 113.48 144.17 113.56 156.17 112.46 168.09 C 112.08 171.95 111.89 175.81 111.76 179.68 C 106.54 180.01 101.30 180.24 96.06 180.17 C 82.67 180.03 69.19 181.47 55.86 179.63 C 43.46 177.74 31.53 172.80 21.49 165.27 C 20.15 164.26 18.88 163.16 17.58 162.11 C 16.60 156.91 15.65 151.71 14.32 146.59 L 14.89 146.53 C 21.26 145.54 27.72 145.66 34.10 144.93 C 36.85 144.80 38.89 142.84 40.92 141.24 C 40.11 135.42 36.43 130.49 31.46 127.51 C 24.39 123.11 16.80 117.59 8.02 118.58 M 107.29 138.58 C 107.85 138.51 108.96 138.38 109.52 138.32 C 109.28 136.73 110.17 134.46 108.66 133.39 C 105.99 133.23 107.37 136.95 107.29 138.58 M 109.26 151.40 C 109.16 153.14 107.98 156.86 110.83 156.70 C 111.73 155.18 111.38 153.37 111.45 151.71 C 110.90 151.63 109.81 151.48 109.26 151.40 M 109.04 174.73 C 109.67 172.53 109.73 170.24 109.08 168.04 C 106.31 169.61 106.37 173.10 109.04 174.73 Z" />
<path fill="#ea3340" opacity="1.00" d=" M 114.36 132.07 C 138.70 129.57 162.76 115.99 174.33 93.92 C 182.51 94.34 189.08 100.55 192.51 107.60 C 193.56 109.99 195.43 111.83 197.54 113.32 C 192.39 113.38 187.38 114.70 182.33 115.55 C 179.69 118.74 176.99 122.00 175.64 125.98 C 174.72 128.74 172.77 130.94 170.81 133.02 C 170.77 134.85 170.75 136.67 170.72 138.49 C 174.41 139.01 178.17 138.59 181.84 139.19 C 186.84 141.08 191.48 145.84 197.25 143.78 C 196.69 150.13 195.99 156.84 192.25 162.23 C 190.48 165.01 187.52 166.76 184.45 167.77 C 178.86 169.81 172.89 170.46 166.97 170.39 C 155.00 170.45 142.43 170.21 131.37 175.52 C 125.70 178.30 119.37 179.09 113.16 179.69 C 114.30 163.85 116.02 147.94 114.36 132.07 Z" />
</g>
<g id="#784e3dff">
<path fill="#784e3d" opacity="1.00" d=" M 112.92 132.22 L 114.36 132.07 C 116.02 147.94 114.30 163.85 113.16 179.69 C 119.37 179.09 125.70 178.30 131.37 175.52 C 142.43 170.21 155.00 170.45 166.97 170.39 C 172.89 170.46 178.86 169.81 184.45 167.77 C 182.37 174.28 180.36 180.82 178.27 187.33 C 155.84 180.51 131.72 181.37 108.96 186.07 C 105.26 186.91 101.56 185.76 97.98 184.95 C 90.14 183.08 82.03 183.14 74.03 183.15 C 59.05 183.19 44.17 185.11 29.40 187.42 C 26.69 180.06 24.04 172.68 21.49 165.27 C 31.53 172.80 43.46 177.74 55.86 179.63 C 69.19 181.47 82.67 180.03 96.06 180.17 C 101.30 180.24 106.54 180.01 111.76 179.68 C 111.89 175.81 112.08 171.95 112.46 168.09 C 113.56 156.17 113.48 144.17 112.92 132.22 Z" />
</g>
</svg>
