<?xml version="1.0" encoding="UTF-8" ?>
<!DOCTYPE svg PUBLIC "-//W3C//DTD SVG 1.1//EN" "http://www.w3.org/Graphics/SVG/1.1/DTD/svg11.dtd">
<svg width="160pt" height="195pt" viewBox="0 0 160 195" version="1.1" xmlns="http://www.w3.org/2000/svg">
<g id="#68c146ff">
<path fill="#68c146" opacity="1.00" d=" M 18.82 9.85 C 19.27 4.36 24.65 0.12 30.08 0.58 C 63.73 0.61 97.38 0.57 131.04 0.60 C 136.35 0.41 141.49 4.80 141.63 10.21 C 141.79 19.12 141.63 28.04 141.69 36.96 C 141.77 41.46 141.33 46.01 142.23 50.46 C 145.61 53.23 147.79 57.10 149.98 60.82 C 155.05 70.12 158.73 80.39 159.51 91.01 C 159.64 95.24 159.69 100.32 156.26 103.37 C 153.85 104.51 150.90 103.91 148.80 102.37 C 144.90 99.62 142.03 95.70 139.33 91.83 C 132.77 81.62 128.92 69.82 127.58 57.79 C 129.62 58.19 131.67 58.61 133.71 59.02 C 133.75 54.72 133.78 50.43 133.93 46.14 C 136.13 47.14 138.26 48.33 140.20 49.79 C 140.16 49.06 140.07 47.60 140.03 46.87 C 137.98 45.83 135.89 44.85 133.81 43.87 C 133.70 36.94 133.84 30.01 133.73 23.08 C 98.43 22.96 63.13 22.92 27.83 23.09 C 27.63 29.50 27.73 35.91 27.70 42.33 C 24.40 43.11 21.13 44.23 18.48 46.44 C 19.13 34.26 18.44 22.04 18.82 9.85 Z" />
<path fill="#68c146" opacity="1.00" d=" M 20.06 46.75 C 22.62 46.10 25.17 45.38 27.72 44.66 C 27.69 49.36 27.73 54.05 27.82 58.75 C 28.84 58.66 30.88 58.48 31.90 58.39 C 30.84 70.36 26.16 81.85 19.60 91.84 C 16.33 95.77 13.11 100.42 8.03 102.08 C 5.36 103.09 2.49 101.18 1.67 98.62 C -0.39 93.01 0.57 86.85 1.68 81.14 C 4.11 70.39 8.51 59.97 15.23 51.19 C 16.62 49.51 17.96 47.60 20.06 46.75 Z" />
<path fill="#68c146" opacity="1.00" d=" M 17.20 158.67 C 20.11 152.48 28.07 151.80 33.49 154.94 C 30.74 156.35 28.06 159.28 29.70 162.56 C 31.02 165.78 34.78 165.65 37.57 164.70 C 36.52 167.37 35.18 169.97 33.18 172.06 C 29.24 174.24 23.93 174.69 20.23 171.79 C 16.14 168.95 14.97 163.00 17.20 158.67 Z" />
<path fill="#68c146" opacity="1.00" d=" M 123.72 157.36 C 128.22 153.63 135.19 154.70 138.90 159.03 C 142.03 163.52 141.51 170.50 136.89 173.80 C 132.86 177.11 127.19 175.97 122.88 173.84 C 121.84 171.83 120.77 169.83 119.75 167.81 C 122.69 168.88 126.69 168.33 127.56 164.83 C 128.71 161.70 125.65 159.79 123.88 157.80 L 123.72 157.36 Z" />
<path fill="#68c146" opacity="1.00" d=" M 32.20 157.03 C 34.72 155.24 38.42 158.01 37.75 160.96 C 37.66 163.87 33.53 165.67 31.58 163.32 C 29.62 161.76 30.00 158.23 32.20 157.03 Z" />
<path fill="#68c146" opacity="1.00" d=" M 121.19 159.96 C 123.40 158.49 126.62 160.42 126.64 163.00 C 127.22 165.84 123.66 168.57 121.18 166.89 C 118.59 165.54 118.52 161.27 121.19 159.96 Z" />
</g>
<g id="#43933aff">
<path fill="#43933a" opacity="1.00" d=" M 27.83 23.09 C 63.13 22.92 98.43 22.96 133.73 23.08 C 133.84 30.01 133.70 36.94 133.81 43.87 C 135.89 44.85 137.98 45.83 140.03 46.87 C 140.07 47.60 140.16 49.06 140.20 49.79 C 138.26 48.33 136.13 47.14 133.93 46.14 C 133.78 50.43 133.75 54.72 133.71 59.02 C 131.67 58.61 129.62 58.19 127.58 57.79 C 118.53 56.12 109.39 54.54 100.17 54.40 C 99.99 54.40 99.63 54.39 99.44 54.39 C 96.24 54.05 93.05 53.51 89.82 53.40 C 72.24 52.91 54.51 53.25 37.22 56.77 C 35.41 57.20 33.65 57.79 31.90 58.39 C 30.88 58.48 28.84 58.66 27.82 58.75 C 27.73 54.05 27.69 49.36 27.72 44.66 C 25.17 45.38 22.62 46.10 20.06 46.75 L 18.48 46.44 C 21.13 44.23 24.40 43.11 27.70 42.33 C 27.73 35.91 27.63 29.50 27.83 23.09 Z" />
<path fill="#43933a" opacity="1.00" d=" M 69.97 132.70 C 89.51 135.68 110.43 129.43 124.66 115.60 C 124.15 117.03 123.68 118.48 123.07 119.88 C 118.47 128.11 109.26 132.08 100.73 134.92 C 94.63 136.84 88.09 138.17 81.73 136.78 C 81.50 136.73 81.06 136.64 80.84 136.59 C 74.71 138.40 68.44 136.37 62.68 134.24 C 54.25 130.97 45.42 127.28 39.46 120.17 C 48.54 126.53 58.90 131.26 69.97 132.70 Z" />
</g>
<g id="#f6d6b2ff">
<path fill="#f6d6b2" opacity="1.00" d=" M 37.22 56.77 C 54.51 53.25 72.24 52.91 89.82 53.40 C 93.05 53.51 96.24 54.05 99.44 54.39 C 95.65 54.74 91.63 54.52 88.06 56.02 C 84.32 58.33 81.18 62.35 81.12 66.90 C 80.94 69.96 80.97 73.02 80.70 76.07 C 78.86 72.05 80.08 67.63 79.47 63.43 C 78.06 58.84 73.99 54.76 69.02 54.40 C 62.63 53.67 55.62 55.19 50.99 59.90 C 45.92 65.12 42.15 72.42 43.29 79.87 C 44.55 88.78 54.19 95.50 62.99 93.18 C 71.65 91.41 77.51 83.83 80.38 75.91 C 82.66 84.12 88.38 92.05 97.04 94.11 C 105.60 96.57 115.05 90.38 116.96 81.86 C 118.51 75.22 115.68 68.45 111.89 63.09 C 109.02 59.00 104.34 56.88 100.17 54.40 C 109.39 54.54 118.53 56.12 127.58 57.79 C 128.92 69.82 132.77 81.62 139.33 91.83 C 136.94 100.94 131.42 109.11 124.66 115.60 C 110.43 129.43 89.51 135.68 69.97 132.70 C 58.90 131.26 48.54 126.53 39.46 120.17 C 38.21 119.01 36.94 117.86 35.69 116.70 C 28.21 110.04 22.76 101.31 19.60 91.84 C 26.16 81.85 30.84 70.36 31.90 58.39 C 33.65 57.79 35.41 57.20 37.22 56.77 M 71.49 116.16 C 74.62 115.97 77.70 115.05 80.86 115.37 C 84.47 115.58 87.78 117.13 91.28 117.88 C 85.71 114.02 77.56 112.84 71.49 116.16 Z" />
</g>
<g id="#ffffffff">
<path fill="#ffffff" opacity="1.00" d=" M 50.99 59.90 C 55.62 55.19 62.63 53.67 69.02 54.40 C 73.99 54.76 78.06 58.84 79.47 63.43 C 80.08 67.63 78.86 72.05 80.70 76.07 C 80.97 73.02 80.94 69.96 81.12 66.90 C 81.18 62.35 84.32 58.33 88.06 56.02 C 91.63 54.52 95.65 54.74 99.44 54.39 C 99.63 54.39 99.99 54.40 100.17 54.40 C 104.34 56.88 109.02 59.00 111.89 63.09 C 115.68 68.45 118.51 75.22 116.96 81.86 C 115.05 90.38 105.60 96.57 97.04 94.11 C 88.38 92.05 82.66 84.12 80.38 75.91 C 77.51 83.83 71.65 91.41 62.99 93.18 C 54.19 95.50 44.55 88.78 43.29 79.87 C 42.15 72.42 45.92 65.12 50.99 59.90 M 68.52 72.44 C 68.43 73.10 68.26 74.42 68.17 75.08 C 68.03 77.58 71.07 76.79 72.61 76.55 C 72.52 75.33 72.57 74.06 72.13 72.90 C 70.96 72.52 69.73 72.54 68.52 72.44 M 88.77 72.69 C 88.43 73.76 88.17 74.85 87.99 75.96 C 88.51 76.29 89.56 76.95 90.08 77.28 C 90.72 77.01 92.00 76.47 92.64 76.20 C 92.55 74.99 92.44 73.77 92.31 72.56 C 91.13 72.57 89.94 72.56 88.77 72.69 Z" />
</g>
<g id="#161317ff">
<path fill="#161317" opacity="1.00" d=" M 68.52 72.44 C 69.73 72.54 70.96 72.52 72.13 72.90 C 72.57 74.06 72.52 75.33 72.61 76.55 C 71.07 76.79 68.03 77.58 68.17 75.08 C 68.26 74.42 68.43 73.10 68.52 72.44 Z" />
<path fill="#161317" opacity="1.00" d=" M 88.77 72.69 C 89.94 72.56 91.13 72.57 92.31 72.56 C 92.44 73.77 92.55 74.99 92.64 76.20 C 92.00 76.47 90.72 77.01 90.08 77.28 C 89.56 76.95 88.51 76.29 87.99 75.96 C 88.17 74.85 88.43 73.76 88.77 72.69 Z" />
<path fill="#161317" opacity="1.00" d=" M 71.49 116.16 C 77.56 112.84 85.71 114.02 91.28 117.88 C 87.78 117.13 84.47 115.58 80.86 115.37 C 77.70 115.05 74.62 115.97 71.49 116.16 Z" />
<path fill="#161317" opacity="1.00" d=" M 80.84 136.59 C 81.06 136.64 81.50 136.73 81.73 136.78 C 81.84 151.19 81.73 165.61 81.77 180.03 L 80.77 180.08 C 80.85 165.58 80.71 151.09 80.84 136.59 Z" />
<path fill="#161317" opacity="1.00" d=" M 91.67 142.28 C 97.86 142.33 104.04 142.31 110.23 142.30 C 110.32 149.43 110.30 156.56 110.25 163.70 C 104.04 163.69 97.84 163.69 91.64 163.70 C 91.61 156.56 91.56 149.42 91.67 142.28 M 93.36 143.36 C 95.84 146.33 98.38 149.27 100.95 152.17 C 103.49 149.26 106.00 146.32 108.49 143.36 C 103.45 143.32 98.40 143.32 93.36 143.36 M 92.71 144.71 C 92.57 150.68 92.68 156.65 92.63 162.62 C 98.19 162.70 103.74 162.72 109.30 162.59 C 109.23 156.65 109.34 150.70 109.22 144.76 C 106.07 147.41 103.63 150.73 100.94 153.80 C 98.27 150.70 95.72 147.49 92.71 144.71 Z" />
<path fill="#161317" opacity="1.00" d=" M 51.53 143.21 C 57.72 143.28 63.92 143.27 70.12 143.22 C 70.23 150.36 70.27 157.49 70.09 164.62 C 63.90 164.61 57.71 164.63 51.52 164.61 C 51.48 157.47 51.47 150.34 51.53 143.21 M 53.25 144.26 C 55.74 147.24 58.27 150.18 60.88 153.07 C 63.38 150.13 65.89 147.20 68.40 144.29 C 63.35 144.22 58.30 144.24 53.25 144.26 M 60.85 154.68 C 58.08 151.51 55.34 148.32 52.59 145.14 C 52.52 151.28 52.54 157.43 52.56 163.57 C 58.12 163.58 63.67 163.60 69.23 163.54 C 69.21 157.38 69.25 151.21 69.20 145.05 C 66.39 148.23 63.61 151.45 60.85 154.68 Z" />
<path fill="#161317" opacity="1.00" d=" M 118.36 142.56 C 120.35 147.62 120.90 153.04 122.10 158.30 C 122.50 158.07 123.31 157.60 123.72 157.36 L 123.88 157.80 C 125.65 159.79 128.71 161.70 127.56 164.83 C 126.69 168.33 122.69 168.88 119.75 167.81 C 117.59 164.81 118.04 161.12 120.55 158.49 C 120.44 153.10 119.25 147.84 118.36 142.56 M 121.19 159.96 C 118.52 161.27 118.59 165.54 121.18 166.89 C 123.66 168.57 127.22 165.84 126.64 163.00 C 126.62 160.42 123.40 158.49 121.19 159.96 Z" />
<path fill="#161317" opacity="1.00" d=" M 34.97 155.50 C 35.27 151.71 36.14 147.99 37.52 144.45 C 37.08 147.69 36.26 150.89 36.23 154.17 C 36.64 156.29 38.10 158.01 38.79 160.03 C 38.64 161.63 38.17 163.20 37.57 164.70 C 34.78 165.65 31.02 165.78 29.70 162.56 C 28.06 159.28 30.74 156.35 33.49 154.94 C 33.86 155.08 34.60 155.36 34.97 155.50 M 32.20 157.03 C 30.00 158.23 29.62 161.76 31.58 163.32 C 33.53 165.67 37.66 163.87 37.75 160.96 C 38.42 158.01 34.72 155.24 32.20 157.03 Z" />
<path fill="#161317" opacity="1.00" d=" M 37.75 189.48 C 50.45 188.11 63.25 188.40 76.00 188.44 C 91.46 188.61 106.96 188.40 122.36 189.97 C 125.18 190.22 127.98 190.80 130.55 192.04 C 128.47 192.86 126.31 193.49 124.07 193.60 C 110.75 194.71 97.35 194.31 84.00 193.77 C 70.01 193.79 56.01 194.03 42.03 193.48 C 38.27 193.36 34.52 192.89 30.86 192.00 C 32.62 190.05 35.33 189.85 37.75 189.48 Z" />
</g>
<g id="#eb5729ff">
<path fill="#eb5729" opacity="1.00" d=" M 35.69 116.70 C 36.94 117.86 38.21 119.01 39.46 120.17 C 45.42 127.28 54.25 130.97 62.68 134.24 C 68.44 136.37 74.71 138.40 80.84 136.59 C 80.71 151.09 80.85 165.58 80.77 180.08 C 66.27 180.62 51.54 179.36 37.67 174.92 C 35.87 174.36 34.11 173.68 32.33 173.04 L 33.18 172.06 C 35.18 169.97 36.52 167.37 37.57 164.70 C 38.17 163.20 38.64 161.63 38.79 160.03 C 38.10 158.01 36.64 156.29 36.23 154.17 C 36.26 150.89 37.08 147.69 37.52 144.45 C 36.14 147.99 35.27 151.71 34.97 155.50 C 34.60 155.36 33.86 155.08 33.49 154.94 C 28.07 151.80 20.11 152.48 17.20 158.67 C 19.76 143.42 25.91 128.74 35.69 116.70 M 51.53 143.21 C 51.47 150.34 51.48 157.47 51.52 164.61 C 57.71 164.63 63.90 164.61 70.09 164.62 C 70.27 157.49 70.23 150.36 70.12 143.22 C 63.92 143.27 57.72 143.28 51.53 143.21 Z" />
<path fill="#eb5729" opacity="1.00" d=" M 123.07 119.88 L 123.67 118.88 C 129.25 128.45 134.63 138.29 137.70 148.99 C 138.71 152.23 138.88 155.65 138.90 159.03 C 135.19 154.70 128.22 153.63 123.72 157.36 C 123.31 157.60 122.50 158.07 122.10 158.30 C 120.90 153.04 120.35 147.62 118.36 142.56 C 119.25 147.84 120.44 153.10 120.55 158.49 C 118.04 161.12 117.59 164.81 119.75 167.81 C 120.77 169.83 121.84 171.83 122.88 173.84 C 121.85 174.13 120.82 174.46 119.81 174.82 C 107.36 177.91 94.56 179.44 81.77 180.03 C 81.73 165.61 81.84 151.19 81.73 136.78 C 88.09 138.17 94.63 136.84 100.73 134.92 C 109.26 132.08 118.47 128.11 123.07 119.88 M 91.67 142.28 C 91.56 149.42 91.61 156.56 91.64 163.70 C 97.84 163.69 104.04 163.69 110.25 163.70 C 110.30 156.56 110.32 149.43 110.23 142.30 C 104.04 142.31 97.86 142.33 91.67 142.28 Z" />
<path fill="#eb5729" opacity="1.00" d=" M 53.25 144.26 C 58.30 144.24 63.35 144.22 68.40 144.29 C 65.89 147.20 63.38 150.13 60.88 153.07 C 58.27 150.18 55.74 147.24 53.25 144.26 Z" />
<path fill="#eb5729" opacity="1.00" d=" M 93.36 143.36 C 98.40 143.32 103.45 143.32 108.49 143.36 C 106.00 146.32 103.49 149.26 100.95 152.17 C 98.38 149.27 95.84 146.33 93.36 143.36 Z" />
<path fill="#eb5729" opacity="1.00" d=" M 92.71 144.71 C 95.72 147.49 98.27 150.70 100.94 153.80 C 103.63 150.73 106.07 147.41 109.22 144.76 C 109.34 150.70 109.23 156.65 109.30 162.59 C 103.74 162.72 98.19 162.70 92.63 162.62 C 92.68 156.65 92.57 150.68 92.71 144.71 Z" />
<path fill="#eb5729" opacity="1.00" d=" M 60.85 154.68 C 63.61 151.45 66.39 148.23 69.20 145.05 C 69.25 151.21 69.21 157.38 69.23 163.54 C 63.67 163.60 58.12 163.58 52.56 163.57 C 52.54 157.43 52.52 151.28 52.59 145.14 C 55.34 148.32 58.08 151.51 60.85 154.68 Z" />
</g>
<g id="#2f4e43ff">
<path fill="#2f4e43" opacity="1.00" d=" M 37.67 174.92 C 51.54 179.36 66.27 180.62 80.77 180.08 L 81.77 180.03 C 94.56 179.44 107.36 177.91 119.81 174.82 C 120.54 174.75 122.00 174.62 122.73 174.55 C 121.99 179.66 122.39 184.83 122.36 189.97 C 106.96 188.40 91.46 188.61 76.00 188.44 C 63.25 188.40 50.45 188.11 37.75 189.48 C 37.72 184.63 37.76 179.78 37.67 174.92 Z" />
</g>
</svg>
