<?xml version="1.0" encoding="UTF-8" ?>
<!DOCTYPE svg PUBLIC "-//W3C//DTD SVG 1.1//EN" "http://www.w3.org/Graphics/SVG/1.1/DTD/svg11.dtd">
<svg width="142pt" height="193pt" viewBox="0 0 142 193" version="1.1" xmlns="http://www.w3.org/2000/svg">
<g id="#ec5f30ff">
<path fill="#ec5f30" opacity="1.00" d=" M 53.95 3.43 C 68.73 -0.30 84.75 1.00 98.69 7.19 C 113.03 13.45 125.11 24.68 132.53 38.45 C 140.64 53.44 143.16 71.34 139.51 87.99 C 136.67 101.28 129.89 113.68 120.25 123.25 C 117.87 124.90 120.17 127.33 120.97 129.18 C 125.97 138.35 128.86 148.46 130.68 158.69 C 128.52 156.30 125.30 154.62 122.01 155.26 C 119.11 155.79 116.26 156.64 113.30 156.87 C 112.73 154.40 112.14 151.93 111.42 149.50 C 111.44 151.95 111.51 154.40 111.56 156.85 C 110.78 158.75 108.47 160.75 109.66 162.92 C 111.89 167.03 113.98 171.26 116.89 174.94 C 115.58 175.29 114.27 175.63 112.96 175.99 C 112.63 176.08 111.98 176.27 111.65 176.37 C 111.77 180.41 111.73 184.46 111.75 188.51 C 83.99 188.52 56.24 188.51 28.49 188.51 C 28.12 183.65 29.25 178.52 27.90 173.83 C 26.70 172.91 24.82 173.29 23.88 171.99 C 23.93 167.55 28.81 164.08 27.39 159.44 C 26.54 155.92 27.11 152.31 27.42 148.76 C 26.48 151.32 25.74 153.95 25.04 156.59 C 19.86 155.15 14.00 152.84 9.07 156.31 C 10.96 144.66 15.85 133.60 22.51 123.90 C 11.12 112.79 3.48 97.86 1.48 82.04 C -1.11 64.04 3.62 45.13 14.30 30.41 C 23.82 17.16 38.07 7.31 53.95 3.43 M 58.05 32.90 C 50.34 34.11 43.52 38.12 36.97 42.11 C 30.25 47.44 23.98 53.83 21.00 62.05 C 15.71 74.99 17.99 90.41 26.31 101.56 C 35.60 114.35 51.13 121.71 66.76 122.49 C 65.88 126.08 64.52 129.52 63.43 133.05 C 66.82 130.67 66.86 126.00 68.29 122.45 C 69.48 122.42 70.68 122.39 71.87 122.35 C 73.05 127.60 72.19 134.08 76.37 138.08 C 74.95 132.94 73.47 127.77 73.60 122.37 C 90.39 121.36 107.02 112.27 115.33 97.38 C 121.90 85.93 122.32 71.27 116.46 59.45 C 112.94 51.71 106.62 45.88 100.18 40.58 C 99.61 41.05 99.04 41.53 98.47 42.02 C 106.09 45.90 111.76 53.00 115.49 60.57 C 120.63 71.32 120.46 84.41 115.06 95.02 C 109.63 105.94 99.46 114.07 88.04 118.05 C 71.72 123.78 52.61 121.56 38.42 111.53 C 29.42 105.29 22.55 95.76 20.33 84.96 C 18.23 75.06 20.19 64.41 25.66 55.90 C 22.36 65.86 22.13 76.87 25.38 86.87 C 27.79 94.42 33.01 101.06 39.95 104.94 C 48.70 109.95 59.10 110.96 69.00 110.32 C 76.34 110.42 83.83 110.17 90.81 107.66 C 98.63 105.03 105.54 99.38 109.03 91.83 C 112.73 83.98 113.18 75.01 112.28 66.49 C 111.13 56.80 106.14 47.29 97.75 42.01 C 97.90 41.14 98.04 40.27 98.18 39.40 C 85.97 32.93 71.70 30.00 58.05 32.90 Z" />
</g>
<g id="#492418ff">
<path fill="#492418" opacity="1.00" d=" M 58.05 32.90 C 71.70 30.00 85.97 32.93 98.18 39.40 C 98.04 40.27 97.90 41.14 97.75 42.01 C 106.14 47.29 111.13 56.80 112.28 66.49 C 113.18 75.01 112.73 83.98 109.03 91.83 C 105.54 99.38 98.63 105.03 90.81 107.66 C 83.83 110.17 76.34 110.42 69.00 110.32 C 59.10 110.96 48.70 109.95 39.95 104.94 C 33.01 101.06 27.79 94.42 25.38 86.87 C 22.13 76.87 22.36 65.86 25.66 55.90 C 20.19 64.41 18.23 75.06 20.33 84.96 C 22.55 95.76 29.42 105.29 38.42 111.53 C 52.61 121.56 71.72 123.78 88.04 118.05 C 99.46 114.07 109.63 105.94 115.06 95.02 C 120.46 84.41 120.63 71.32 115.49 60.57 C 111.76 53.00 106.09 45.90 98.47 42.02 C 99.04 41.53 99.61 41.05 100.18 40.58 C 106.62 45.88 112.94 51.71 116.46 59.45 C 122.32 71.27 121.90 85.93 115.33 97.38 C 107.02 112.27 90.39 121.36 73.60 122.37 C 73.47 127.77 74.95 132.94 76.37 138.08 C 72.19 134.08 73.05 127.60 71.87 122.35 C 70.68 122.39 69.48 122.42 68.29 122.45 C 66.86 126.00 66.82 130.67 63.43 133.05 C 64.52 129.52 65.88 126.08 66.76 122.49 C 51.13 121.71 35.60 114.35 26.31 101.56 C 17.99 90.41 15.71 74.99 21.00 62.05 C 23.98 53.83 30.25 47.44 36.97 42.11 C 43.52 38.12 50.34 34.11 58.05 32.90 M 45.83 51.98 C 42.03 56.09 39.47 61.43 38.65 66.97 C 38.31 75.08 41.37 82.88 45.37 89.80 L 45.77 89.79 C 51.30 98.89 60.36 105.52 69.98 109.76 C 77.86 105.06 84.98 98.91 90.43 91.50 C 94.41 85.78 98.01 79.19 97.77 72.01 C 97.80 64.02 93.80 56.61 88.74 50.65 C 82.67 43.60 75.14 37.97 67.08 33.40 C 59.39 38.81 51.38 44.24 45.83 51.98 Z" />
<path fill="#492418" opacity="1.00" d=" M 25.04 156.59 C 25.74 153.95 26.48 151.32 27.42 148.76 C 27.11 152.31 26.54 155.92 27.39 159.44 C 28.81 164.08 23.93 167.55 23.88 171.99 C 24.82 173.29 26.70 172.91 27.90 173.83 C 25.90 174.09 23.98 173.52 22.10 172.96 C 17.93 174.96 12.48 175.70 8.84 172.21 C 3.89 168.24 4.46 160.31 9.07 156.31 C 14.00 152.84 19.86 155.15 25.04 156.59 Z" />
<path fill="#492418" opacity="1.00" d=" M 111.42 149.50 C 112.14 151.93 112.73 154.40 113.30 156.87 C 116.26 156.64 119.11 155.79 122.01 155.26 C 125.30 154.62 128.52 156.30 130.68 158.69 C 135.32 163.66 133.32 172.52 127.12 175.19 C 122.58 177.56 117.62 173.96 112.96 175.99 C 114.27 175.63 115.58 175.29 116.89 174.94 C 113.98 171.26 111.89 167.03 109.66 162.92 C 108.47 160.75 110.78 158.75 111.56 156.85 C 111.51 154.40 111.44 151.95 111.42 149.50 Z" />
</g>
<g id="#f6d6b2ff">
<path fill="#f6d6b2" opacity="1.00" d=" M 45.83 51.98 C 51.38 44.24 59.39 38.81 67.08 33.40 C 75.14 37.97 82.67 43.60 88.74 50.65 C 85.13 50.88 81.35 50.58 77.90 51.89 C 73.67 53.76 71.61 58.19 69.52 62.03 C 68.10 58.31 66.46 54.27 62.84 52.16 C 57.66 49.12 51.23 50.08 45.83 51.98 Z" />
<path fill="#f6d6b2" opacity="1.00" d=" M 68.39 74.39 C 69.15 70.30 67.32 65.84 69.75 62.06 C 70.35 68.14 69.03 74.89 72.84 80.19 C 76.52 86.58 83.33 90.27 90.43 91.50 C 84.98 98.91 77.86 105.06 69.98 109.76 C 60.36 105.52 51.30 98.89 45.77 89.79 C 55.81 90.87 65.24 83.66 68.39 74.39 Z" />
</g>
<g id="#ffffffff">
<path fill="#ffffff" opacity="1.00" d=" M 45.83 51.98 C 51.23 50.08 57.66 49.12 62.84 52.16 C 66.46 54.27 68.10 58.31 69.52 62.03 C 71.61 58.19 73.67 53.76 77.90 51.89 C 81.35 50.58 85.13 50.88 88.74 50.65 C 93.80 56.61 97.80 64.02 97.77 72.01 C 98.01 79.19 94.41 85.78 90.43 91.50 C 83.33 90.27 76.52 86.58 72.84 80.19 C 69.03 74.89 70.35 68.14 69.75 62.06 C 67.32 65.84 69.15 70.30 68.39 74.39 C 65.24 83.66 55.81 90.87 45.77 89.79 L 45.37 89.80 C 41.37 82.88 38.31 75.08 38.65 66.97 C 39.47 61.43 42.03 56.09 45.83 51.98 M 56.73 67.59 C 56.34 68.39 55.95 69.19 55.56 69.99 C 56.02 70.60 56.48 71.22 56.94 71.83 C 57.63 71.71 59.00 71.46 59.69 71.34 C 59.61 70.12 59.54 68.91 59.41 67.71 C 58.52 67.66 57.62 67.62 56.73 67.59 M 79.35 68.47 C 79.45 69.69 79.38 70.96 79.91 72.09 C 81.45 72.87 83.57 71.96 83.32 70.06 C 83.54 67.86 80.75 68.23 79.35 68.47 Z" />
</g>
<g id="#010202ff">
<path fill="#010202" opacity="1.00" d=" M 56.73 67.59 C 57.62 67.62 58.52 67.66 59.41 67.71 C 59.54 68.91 59.61 70.12 59.69 71.34 C 59.00 71.46 57.63 71.71 56.94 71.83 C 56.48 71.22 56.02 70.60 55.56 69.99 C 55.95 69.19 56.34 68.39 56.73 67.59 Z" />
<path fill="#010202" opacity="1.00" d=" M 79.35 68.47 C 80.75 68.23 83.54 67.86 83.32 70.06 C 83.57 71.96 81.45 72.87 79.91 72.09 C 79.38 70.96 79.45 69.69 79.35 68.47 Z" />
<path fill="#010202" opacity="1.00" d=" M 25.66 188.86 C 26.59 188.65 27.54 188.53 28.49 188.51 C 56.24 188.51 83.99 188.52 111.75 188.51 C 113.01 188.51 114.28 188.52 115.54 188.53 C 115.67 189.64 115.79 190.75 115.91 191.87 C 113.93 192.04 111.96 192.19 109.98 192.20 C 82.64 192.13 55.30 192.24 27.96 192.15 C 25.93 192.33 24.50 190.73 25.66 188.86 Z" />
</g>
</svg>
