<?xml version="1.0" encoding="UTF-8" ?>
<!DOCTYPE svg PUBLIC "-//W3C//DTD SVG 1.1//EN" "http://www.w3.org/Graphics/SVG/1.1/DTD/svg11.dtd">
<svg width="765pt" height="977pt" viewBox="0 0 765 977" version="1.1" xmlns="http://www.w3.org/2000/svg">
<g id="#33282ffe">
<path fill="#33282f" opacity="1.00" d=" M 417.67 0.00 L 447.35 0.00 C 457.16 1.78 466.98 4.91 475.01 10.99 C 477.61 12.69 479.92 15.03 482.94 15.95 C 487.63 15.60 492.09 13.86 496.77 13.37 C 506.24 11.70 516.21 12.09 525.23 15.64 C 537.15 19.99 546.53 28.87 555.74 37.26 C 560.49 41.49 564.66 47.27 564.38 53.92 C 563.50 64.25 559.36 74.10 553.65 82.67 C 550.68 87.16 546.25 90.88 540.90 92.05 C 535.11 93.22 529.06 92.50 523.48 90.71 C 522.85 90.49 522.23 90.26 521.62 90.02 C 518.45 88.82 515.48 87.18 512.62 85.36 C 512.90 95.43 511.57 106.70 504.27 114.28 C 499.33 119.51 492.07 121.05 485.29 122.36 C 486.44 133.88 486.46 145.47 487.44 157.00 C 487.38 165.27 488.70 173.47 488.54 181.75 C 487.26 181.65 485.98 181.56 484.71 181.46 C 484.49 161.83 482.19 142.29 482.17 122.64 C 471.49 123.12 460.46 122.09 450.74 117.33 C 439.46 111.88 429.06 104.29 421.11 94.56 C 419.48 92.21 417.86 89.81 416.87 87.11 C 417.14 86.27 417.67 84.57 417.94 83.72 C 421.66 87.83 424.41 92.72 428.36 96.64 C 439.71 108.22 454.68 116.78 470.97 118.51 C 479.84 118.88 489.33 118.74 497.35 114.46 C 504.10 110.88 506.94 103.14 508.16 96.04 C 508.98 89.84 508.35 83.56 508.78 77.33 C 516.18 82.89 524.24 89.01 534.00 88.79 C 539.53 89.22 545.07 86.95 548.65 82.71 C 554.19 76.17 557.57 68.02 559.54 59.74 C 560.49 55.15 561.39 49.73 558.19 45.78 C 552.39 38.64 545.27 32.69 537.95 27.17 C 529.10 20.49 518.25 15.90 507.01 16.34 C 498.38 16.13 490.06 18.62 481.83 20.86 C 474.74 15.16 467.29 9.55 458.52 6.74 C 445.43 2.60 431.34 1.42 417.80 3.81 C 408.60 5.44 399.23 6.38 390.31 9.24 C 379.48 12.84 369.65 18.75 360.07 24.84 C 351.80 20.52 343.65 14.83 334.01 14.38 C 324.67 13.81 315.30 14.21 305.96 14.62 C 298.78 15.70 291.35 16.62 284.83 20.06 C 280.22 22.21 276.61 25.88 273.09 29.45 C 266.67 24.66 259.22 20.46 251.00 20.34 C 244.44 20.12 237.66 20.07 231.44 22.48 C 221.67 25.90 211.45 28.05 201.85 31.91 C 200.01 34.45 199.46 37.64 198.39 40.53 C 194.31 52.36 191.57 64.61 189.79 76.97 C 189.26 85.24 191.35 94.49 197.91 100.08 C 202.33 104.03 208.31 105.46 214.02 106.29 C 223.31 106.84 232.36 103.64 240.49 99.40 C 247.21 95.96 252.56 90.53 258.40 85.86 C 258.54 90.54 257.80 95.30 258.75 99.92 C 259.99 103.92 262.42 107.61 265.74 110.18 C 269.57 112.95 274.57 112.55 279.04 112.22 C 291.22 110.93 302.88 106.75 314.00 101.76 C 318.68 99.67 323.67 97.98 327.63 94.60 C 329.83 92.76 332.11 90.99 334.71 89.73 C 336.27 95.47 337.78 101.55 341.99 106.00 C 349.56 114.84 361.86 117.70 373.05 117.54 C 388.79 116.77 406.34 110.92 414.11 96.10 C 414.74 95.07 415.39 94.04 416.05 93.02 C 417.00 93.88 417.94 94.74 418.89 95.61 C 414.26 106.30 404.49 114.01 393.64 117.74 C 377.13 123.88 357.05 123.42 342.68 112.36 C 337.40 108.70 335.27 102.38 332.29 96.99 C 326.37 100.98 319.69 103.54 313.29 106.62 C 307.84 109.18 302.08 110.97 296.29 112.55 C 287.50 115.16 278.28 117.49 269.06 116.18 C 260.09 113.62 254.92 104.48 253.46 95.77 C 244.37 103.50 232.99 108.09 221.31 110.16 C 214.44 110.88 207.39 109.62 201.10 106.78 C 193.06 103.04 187.40 94.86 186.55 86.05 C 185.40 74.10 187.83 62.10 191.57 50.79 C 193.66 44.34 195.12 37.69 197.40 31.30 C 198.50 27.89 202.21 26.64 205.25 25.54 C 212.41 23.34 219.98 22.73 226.98 19.94 C 241.50 14.49 258.80 14.74 271.93 23.65 C 277.72 18.99 284.35 15.32 291.54 13.33 C 299.15 11.41 306.98 10.53 314.82 10.32 C 321.60 9.58 328.50 9.05 335.25 10.36 C 344.27 11.59 352.39 15.92 360.11 20.50 C 366.53 16.44 372.73 11.91 379.81 9.05 C 391.78 3.75 404.83 1.89 417.67 0.00 Z" />
<path fill="#33282f" opacity="1.00" d=" M 286.19 121.01 C 286.99 119.34 289.49 121.84 289.27 123.02 C 289.31 140.35 289.25 157.68 289.30 175.01 C 289.96 177.20 286.58 180.31 285.46 177.23 C 285.32 158.75 285.33 140.26 285.45 121.78 L 286.19 121.01 Z" />
<path fill="#33282f" opacity="1.00" d=" M 384.16 138.24 C 384.38 135.89 385.37 133.70 386.80 131.83 C 387.17 134.56 387.35 137.32 387.25 140.08 C 386.10 149.30 385.02 158.53 384.29 167.80 C 382.96 167.73 381.64 167.67 380.33 167.58 C 380.86 162.79 381.49 158.00 382.16 153.23 C 383.07 148.27 383.54 143.24 384.16 138.24 Z" />
<path fill="#33282f" opacity="1.00" d=" M 517.14 235.22 C 518.21 232.51 520.18 230.29 522.70 228.83 C 522.04 234.85 522.74 240.96 522.30 247.01 C 521.70 256.83 524.02 266.46 525.15 276.16 C 527.25 295.83 528.50 315.72 526.05 335.42 C 524.60 345.00 522.98 354.56 521.04 364.06 C 516.45 379.50 505.01 392.37 491.10 400.21 C 487.03 402.68 482.60 404.46 478.27 406.40 C 459.62 415.28 439.02 418.37 419.12 423.21 C 408.28 425.89 397.15 427.18 386.00 427.49 C 374.98 427.77 363.90 428.17 352.92 426.95 C 322.66 422.62 291.83 416.99 264.67 402.25 C 258.85 398.17 252.72 394.42 247.83 389.17 C 238.04 379.89 233.29 366.84 229.98 354.08 C 229.21 347.98 227.55 342.07 225.31 336.36 C 222.24 321.71 218.72 307.01 218.41 291.98 C 218.07 285.62 216.34 279.37 216.67 272.98 C 216.83 263.55 219.24 254.37 219.81 244.99 C 220.29 239.88 221.77 234.86 221.58 229.70 C 223.39 231.04 225.95 231.96 226.55 234.40 C 229.39 244.33 229.65 254.76 229.77 265.02 C 229.89 274.42 233.38 283.25 235.78 292.21 C 238.34 301.63 241.37 310.94 245.03 320.00 C 247.00 324.97 250.63 328.96 253.93 333.07 C 258.34 338.53 260.61 345.42 265.43 350.57 C 271.60 357.36 279.95 361.48 287.96 365.67 C 294.27 356.90 300.61 347.82 309.65 341.63 C 322.62 332.69 338.54 329.47 353.97 328.00 C 363.63 326.93 373.30 328.39 382.97 328.59 C 394.67 328.91 406.27 330.77 417.99 330.74 C 422.40 331.12 427.72 330.37 431.11 333.86 C 435.34 338.16 438.67 343.32 441.26 348.74 C 443.56 353.49 444.14 358.77 445.43 363.82 C 446.46 368.18 450.21 371.16 451.75 375.28 C 452.18 378.95 451.06 382.58 450.45 386.17 C 455.32 384.56 460.39 382.83 464.11 379.11 C 469.97 373.34 473.50 365.77 477.83 358.88 C 480.63 354.20 484.26 349.67 484.69 344.02 C 486.23 330.24 488.56 315.99 496.04 304.04 C 499.70 298.47 499.17 291.58 500.28 285.28 C 503.32 267.83 510.35 251.47 517.14 235.22 M 368.01 339.87 C 354.55 340.57 340.73 339.56 327.73 343.79 C 314.49 348.14 304.12 358.62 297.09 370.34 C 301.52 373.21 305.44 377.37 310.86 378.24 C 315.90 379.19 320.97 380.22 325.71 382.24 C 334.29 385.84 343.31 389.30 352.71 389.36 C 356.64 386.80 358.95 382.48 362.14 379.13 C 365.74 375.17 370.11 370.74 375.83 370.68 C 381.67 375.47 384.79 382.65 389.94 388.07 C 391.42 389.80 393.88 389.47 395.92 389.63 C 409.15 389.78 422.40 390.06 435.61 389.17 C 434.08 383.97 433.54 378.58 432.66 373.25 C 430.69 361.33 423.73 350.04 413.29 343.75 C 406.65 339.72 398.66 338.17 390.97 338.95 C 383.34 339.75 375.66 339.69 368.01 339.87 Z" />
<path fill="#33282f" opacity="1.00" d=" M 340.40 240.43 C 342.95 239.98 346.21 239.70 347.99 242.00 C 350.73 244.69 349.83 249.69 346.52 251.54 C 342.81 254.22 337.19 251.42 336.57 247.01 C 336.22 244.37 337.84 241.29 340.40 240.43 Z" />
<path fill="#33282f" opacity="1.00" d=" M 405.40 240.37 C 408.46 239.63 412.32 240.19 413.68 243.43 C 416.78 248.63 409.39 255.11 404.57 251.46 C 399.99 249.23 400.59 241.85 405.40 240.37 Z" />
<path fill="#33282f" opacity="1.00" d=" M 416.70 299.04 C 420.09 300.57 423.04 302.86 425.84 305.28 C 423.73 309.09 422.01 313.69 418.02 315.91 C 412.56 317.37 406.79 316.97 401.26 318.07 C 395.41 318.89 390.05 322.05 384.05 321.85 C 378.05 321.75 372.04 321.92 366.06 321.60 C 362.94 321.54 360.87 318.94 358.69 317.10 C 353.67 318.50 348.29 320.91 343.10 318.90 C 340.07 317.65 336.89 315.75 335.49 312.67 C 335.16 309.31 336.47 305.92 338.85 303.56 C 338.58 306.59 337.70 309.56 337.66 312.61 C 340.23 316.03 344.76 317.88 349.00 317.34 C 352.61 316.88 356.01 315.50 359.46 314.39 C 361.93 316.52 364.32 319.55 367.94 319.38 C 373.63 319.54 379.34 319.47 385.04 319.51 C 389.55 319.80 392.87 316.24 396.98 315.09 C 403.73 313.23 410.85 315.00 417.66 313.70 C 420.35 312.14 422.22 309.22 422.84 306.20 C 420.91 303.71 418.54 301.60 416.70 299.04 Z" />
<path fill="#33282f" opacity="1.00" d=" M 344.14 358.06 C 352.92 356.05 361.97 354.93 370.97 355.85 C 379.82 356.80 388.84 356.99 397.42 359.55 C 401.64 360.78 406.30 361.57 409.51 364.87 C 402.09 364.34 395.26 360.98 387.90 360.15 C 379.37 359.25 370.83 357.91 362.22 358.30 C 356.10 358.48 350.17 360.12 344.14 360.97 C 344.14 360.24 344.14 358.79 344.14 358.06 Z" />
<path fill="#33282f" opacity="1.00" d=" M 285.49 544.62 C 293.37 526.32 316.96 517.15 335.17 525.08 C 336.05 527.66 335.40 530.51 335.51 533.20 C 331.04 532.05 326.70 530.05 321.99 530.14 C 310.45 529.35 298.81 536.09 293.58 546.40 C 290.29 552.02 291.06 558.83 291.44 565.05 C 294.69 580.75 312.42 591.14 327.77 586.81 C 330.39 586.07 332.91 585.03 335.48 584.16 C 335.57 586.91 335.57 589.66 335.60 592.41 C 318.61 600.67 296.39 593.02 287.28 576.68 C 281.54 567.10 280.69 554.76 285.49 544.62 Z" />
<path fill="#33282f" opacity="1.00" d=" M 343.67 524.95 C 345.37 522.29 349.04 524.03 351.67 523.65 C 351.74 532.96 351.65 542.27 351.71 551.59 C 362.24 551.66 372.78 551.59 383.32 551.62 C 383.35 542.29 383.27 532.96 383.36 523.63 C 386.03 523.58 388.71 523.58 391.39 523.63 C 391.47 546.79 391.45 569.96 391.40 593.12 C 389.40 595.39 386.03 594.00 383.39 594.31 C 383.25 582.70 383.33 571.08 383.35 559.47 C 372.79 559.46 362.23 559.38 351.67 559.52 C 351.68 571.11 351.76 582.71 351.63 594.31 C 349.00 593.97 345.54 595.45 343.69 593.04 C 343.57 570.34 343.60 547.64 343.67 524.95 Z" />
<path fill="#33282f" opacity="1.00" d=" M 405.51 523.63 C 416.22 523.59 426.93 523.56 437.65 523.64 C 437.67 526.19 437.67 528.74 437.63 531.29 C 429.62 531.39 421.62 531.34 413.61 531.31 C 413.65 538.20 413.51 545.09 413.64 551.97 L 414.33 552.46 C 421.25 552.75 428.20 552.33 435.13 552.57 C 437.23 554.31 436.11 557.25 436.35 559.60 C 428.77 559.75 421.20 559.62 413.62 559.67 C 413.59 568.36 413.61 577.04 413.61 585.73 C 422.23 586.02 430.98 584.91 439.51 586.41 C 438.94 588.95 440.77 592.75 438.00 594.26 C 430.67 594.50 423.32 594.20 416.01 594.38 C 412.46 594.26 408.84 594.65 405.38 593.68 C 405.60 570.33 405.34 546.98 405.51 523.63 Z" />
<path fill="#33282f" opacity="1.00" d=" M 451.77 523.77 C 462.33 523.32 472.93 523.80 483.51 523.53 C 483.76 526.03 485.50 529.40 482.99 531.25 C 475.23 531.52 467.46 531.22 459.69 531.37 C 459.71 538.42 459.66 545.47 459.73 552.52 C 467.23 552.68 474.76 552.24 482.26 552.73 C 482.47 555.02 482.42 557.33 482.39 559.63 C 475.24 559.77 468.09 559.54 460.94 559.72 C 460.65 560.05 460.07 560.72 459.78 561.06 C 459.53 572.14 459.84 583.23 459.64 594.32 C 457.00 593.98 453.57 595.42 451.65 593.07 C 451.64 569.98 451.41 546.86 451.77 523.77 Z" />
<path fill="#33282f" opacity="1.00" d=" M 756.89 740.94 C 760.03 747.02 760.64 754.22 765.00 759.67 L 765.00 765.03 C 762.65 766.29 760.36 767.64 758.13 769.11 C 760.33 767.22 763.08 764.87 762.39 761.61 C 761.37 754.54 759.02 747.73 756.89 740.94 Z" />
<path fill="#33282f" opacity="1.00" d=" M 118.93 793.03 C 121.53 796.24 125.30 798.02 128.98 799.66 C 127.69 819.75 130.27 839.90 128.96 860.00 C 128.35 867.65 129.58 875.29 129.51 882.95 C 129.47 895.03 130.54 907.25 128.10 919.18 C 127.35 923.78 125.54 928.16 122.97 932.04 C 127.78 922.48 128.96 911.57 128.73 901.01 C 128.49 880.33 128.66 859.66 128.37 838.99 C 127.52 825.96 127.79 812.90 127.73 799.86 C 124.31 798.29 120.87 796.41 118.93 793.03 Z" />
<path fill="#33282f" opacity="1.00" d=" M 393.49 867.80 C 395.47 867.81 397.45 867.85 399.44 867.90 C 399.49 893.33 399.39 918.75 399.60 944.18 C 406.25 945.62 413.09 946.10 419.84 945.19 C 431.70 944.06 443.61 943.71 455.49 942.77 C 464.49 942.37 473.52 942.40 482.52 941.70 C 515.36 941.25 548.21 941.25 581.05 941.54 C 605.14 942.75 629.30 943.38 653.29 946.08 C 659.59 947.07 665.92 947.83 672.30 948.13 C 681.80 949.99 691.47 951.29 700.67 954.44 C 703.31 955.30 705.37 957.22 707.42 959.02 C 705.56 960.72 703.75 962.62 701.31 963.49 C 693.36 966.53 684.82 967.35 676.54 969.06 C 653.21 972.81 629.57 973.86 606.04 975.49 C 598.33 975.24 590.70 976.60 582.99 976.54 C 566.85 976.93 550.70 976.64 534.55 977.00 L 530.45 977.00 C 512.29 976.68 494.13 976.55 475.98 976.41 C 445.61 974.51 415.09 973.50 385.01 968.51 C 378.58 967.19 372.09 968.76 365.66 969.21 C 355.78 969.82 345.91 970.51 336.05 971.33 C 327.88 971.74 319.68 971.35 311.55 972.29 C 295.04 972.77 278.51 972.65 262.00 972.77 C 242.67 972.64 223.31 972.93 204.01 971.71 C 188.32 971.81 172.66 970.65 157.03 969.41 C 138.11 967.82 119.12 966.10 100.54 962.05 C 95.67 960.71 90.34 959.79 86.41 956.40 C 85.26 953.15 88.80 951.51 91.24 950.57 C 97.17 948.47 103.35 947.22 109.46 945.78 C 118.07 945.48 126.42 943.07 135.02 942.62 C 166.25 939.52 197.60 937.28 229.00 937.49 C 246.00 937.41 263.00 937.08 280.00 937.36 C 294.66 937.57 309.35 937.03 323.97 938.30 C 337.95 938.51 351.90 939.52 365.84 940.70 C 375.03 941.75 384.22 942.90 393.46 943.45 C 393.78 918.24 393.46 893.02 393.49 867.80 Z" />
</g>
<g id="#fefefefe">
<path fill="#fefefe" opacity="1.00" d=" M 417.80 3.81 C 431.34 1.42 445.43 2.60 458.52 6.74 C 467.29 9.55 474.74 15.16 481.83 20.86 C 490.06 18.62 498.38 16.13 507.01 16.34 C 518.25 15.90 529.10 20.49 537.95 27.17 C 545.27 32.69 552.39 38.64 558.19 45.78 C 561.39 49.73 560.49 55.15 559.54 59.74 C 557.57 68.02 554.19 76.17 548.65 82.71 C 545.07 86.95 539.53 89.22 534.00 88.79 C 524.24 89.01 516.18 82.89 508.78 77.33 C 508.35 83.56 508.98 89.84 508.16 96.04 C 506.94 103.14 504.10 110.88 497.35 114.46 C 489.33 118.74 479.84 118.88 470.97 118.51 C 454.68 116.78 439.71 108.22 428.36 96.64 C 424.41 92.72 421.66 87.83 417.94 83.72 C 417.67 84.57 417.14 86.27 416.87 87.11 C 415.98 90.12 415.19 93.16 414.11 96.10 C 406.34 110.92 388.79 116.77 373.05 117.54 C 361.86 117.70 349.56 114.84 341.99 106.00 C 337.78 101.55 336.27 95.47 334.71 89.73 C 332.11 90.99 329.83 92.76 327.63 94.60 C 323.67 97.98 318.68 99.67 314.00 101.76 C 302.88 106.75 291.22 110.93 279.04 112.22 C 274.57 112.55 269.57 112.95 265.74 110.18 C 262.42 107.61 259.99 103.92 258.75 99.92 C 257.80 95.30 258.54 90.54 258.40 85.86 C 252.56 90.53 247.21 95.96 240.49 99.40 C 232.36 103.64 223.31 106.84 214.02 106.29 C 208.31 105.46 202.33 104.03 197.91 100.08 C 191.35 94.49 189.26 85.24 189.79 76.97 C 191.57 64.61 194.31 52.36 198.39 40.53 C 199.46 37.64 200.01 34.45 201.85 31.91 C 211.45 28.05 221.67 25.90 231.44 22.48 C 237.66 20.07 244.44 20.12 251.00 20.34 C 259.22 20.46 266.67 24.66 273.09 29.45 C 276.61 25.88 280.22 22.21 284.83 20.06 C 291.35 16.62 298.78 15.70 305.96 14.62 C 315.30 14.21 324.67 13.81 334.01 14.38 C 343.65 14.83 351.80 20.52 360.07 24.84 C 369.65 18.75 379.48 12.84 390.31 9.24 C 399.23 6.38 408.60 5.44 417.80 3.81 Z" />
<path fill="#fefefe" opacity="1.00" d=" M 512.62 85.36 C 515.48 87.18 518.45 88.82 521.62 90.02 C 522.40 92.59 522.64 95.27 522.61 97.95 C 522.47 140.76 522.67 183.58 522.51 226.39 C 522.34 226.75 522.01 227.47 521.85 227.83 C 519.69 228.92 517.37 227.48 515.21 227.06 C 480.42 215.96 444.80 206.80 408.40 203.11 C 375.64 199.73 342.46 201.08 309.99 206.50 C 285.13 211.06 260.55 217.09 236.47 224.76 C 231.50 226.24 226.60 227.97 221.52 229.08 C 221.10 189.45 221.52 149.80 221.31 110.16 C 232.99 108.09 244.37 103.50 253.46 95.77 C 254.92 104.48 260.09 113.62 269.06 116.18 C 278.28 117.49 287.50 115.16 296.29 112.55 C 302.08 110.97 307.84 109.18 313.29 106.62 C 319.69 103.54 326.37 100.98 332.29 96.99 C 335.27 102.38 337.40 108.70 342.68 112.36 C 357.05 123.42 377.13 123.88 393.64 117.74 C 404.49 114.01 414.26 106.30 418.89 95.61 C 419.62 95.26 420.36 94.91 421.11 94.56 C 429.06 104.29 439.46 111.88 450.74 117.33 C 460.46 122.09 471.49 123.12 482.17 122.64 C 482.19 142.29 484.49 161.83 484.71 181.46 C 485.98 181.56 487.26 181.65 488.54 181.75 C 488.70 173.47 487.38 165.27 487.44 157.00 C 486.46 145.47 486.44 133.88 485.29 122.36 C 492.07 121.05 499.33 119.51 504.27 114.28 C 511.57 106.70 512.90 95.43 512.62 85.36 M 286.19 121.01 L 285.45 121.78 C 285.33 140.26 285.32 158.75 285.46 177.23 C 286.58 180.31 289.96 177.20 289.30 175.01 C 289.25 157.68 289.31 140.35 289.27 123.02 C 289.49 121.84 286.99 119.34 286.19 121.01 M 384.22 131.80 C 383.45 138.93 382.56 146.06 382.16 153.23 C 381.49 158.00 380.86 162.79 380.33 167.58 C 381.64 167.67 382.96 167.73 384.29 167.80 C 385.02 158.53 386.10 149.30 387.25 140.08 C 387.58 137.30 387.84 134.52 387.96 131.72 C 386.71 131.76 385.47 131.78 384.22 131.80 Z" />
<path fill="#fefefe" opacity="1.00" d=" M 341.39 206.60 C 349.89 204.37 359.46 206.16 366.28 211.79 C 371.89 216.22 375.12 223.09 376.22 230.04 C 377.00 238.23 377.04 246.79 373.80 254.51 C 367.42 273.02 351.65 288.81 332.15 292.75 C 326.14 294.11 319.75 293.33 314.12 290.88 C 304.46 286.62 297.59 276.55 297.39 265.96 C 297.20 260.99 296.85 255.91 298.10 251.04 C 300.42 242.10 304.72 233.71 310.51 226.52 C 313.82 223.15 317.17 219.80 320.69 216.64 C 326.81 211.94 333.80 208.21 341.39 206.60 M 340.40 240.43 C 337.84 241.29 336.22 244.37 336.57 247.01 C 337.19 251.42 342.81 254.22 346.52 251.54 C 349.83 249.69 350.73 244.69 347.99 242.00 C 346.21 239.70 342.95 239.98 340.40 240.43 Z" />
<path fill="#fefefe" opacity="1.00" d=" M 404.29 208.95 C 415.13 206.96 426.20 210.88 435.26 216.68 C 441.85 220.55 446.90 226.42 451.84 232.13 C 459.04 242.16 463.62 254.51 462.76 266.98 C 462.93 276.98 457.45 286.75 449.01 292.04 C 442.45 296.02 434.52 297.34 426.95 296.36 C 405.22 292.95 386.90 275.55 381.24 254.46 C 379.01 247.14 378.83 239.20 380.49 231.75 C 383.07 220.38 392.66 210.81 404.29 208.95 M 405.40 240.37 C 400.59 241.85 399.99 249.23 404.57 251.46 C 409.39 255.11 416.78 248.63 413.68 243.43 C 412.32 240.19 408.46 239.63 405.40 240.37 Z" />
<path fill="#fefefe" opacity="1.00" d=" M 218.05 340.08 C 220.42 339.15 222.83 338.37 225.23 337.54 C 226.84 343.05 228.27 348.60 229.98 354.08 C 233.29 366.84 238.04 379.89 247.83 389.17 C 252.72 394.42 258.85 398.17 264.67 402.25 C 272.68 416.82 279.94 431.78 287.41 446.62 C 303.21 445.03 319.12 443.71 335.01 444.88 C 344.91 445.77 354.87 445.24 364.79 445.84 C 374.50 446.81 384.28 446.24 394.00 446.99 C 403.97 447.82 413.99 447.17 423.95 448.08 C 431.28 448.72 438.66 448.35 446.01 448.81 C 454.98 449.69 464.09 449.74 473.03 448.43 C 476.38 437.12 480.91 426.20 485.03 415.15 C 487.01 410.15 488.55 404.96 491.10 400.21 C 505.01 392.37 516.45 379.50 521.04 364.06 C 524.16 355.34 525.45 346.17 526.68 337.04 C 528.43 337.73 530.20 338.42 531.94 339.17 C 537.73 342.65 542.06 348.05 545.81 353.57 C 542.86 358.34 537.51 360.81 534.19 365.26 C 528.12 372.64 525.62 382.02 522.98 391.01 C 519.21 402.42 516.36 414.09 513.34 425.71 C 511.22 434.03 507.38 441.77 503.37 449.31 C 501.63 452.74 499.59 456.09 498.71 459.87 C 500.91 466.24 504.66 471.94 508.43 477.48 C 518.64 492.33 528.29 507.57 538.94 522.13 C 549.69 537.45 561.11 552.38 574.22 565.78 C 585.50 576.77 590.85 593.20 604.92 601.42 C 609.08 613.90 613.61 626.26 618.05 638.65 C 620.55 645.50 622.41 652.57 625.03 659.38 C 629.12 669.94 632.49 680.76 636.76 691.25 C 640.12 699.67 644.06 707.84 647.79 716.10 C 650.93 723.03 655.28 729.31 659.08 735.89 C 660.89 738.54 660.12 741.85 660.30 744.87 C 658.60 753.01 658.57 761.51 655.50 769.35 C 653.96 775.23 650.36 780.17 647.28 785.31 C 644.32 790.31 639.96 794.28 635.50 797.92 C 631.65 801.24 627.42 804.07 623.28 806.99 C 613.26 814.27 601.34 818.00 589.51 821.11 C 573.63 824.86 557.96 829.46 542.10 833.30 C 537.72 834.35 533.40 835.62 529.10 836.94 C 513.31 841.66 497.73 847.08 481.83 851.46 C 469.51 854.29 457.30 857.55 444.98 860.38 C 433.73 862.57 422.31 863.70 411.00 865.48 C 391.48 868.62 371.58 868.05 351.98 866.12 C 340.02 864.17 328.10 861.99 316.16 859.98 C 304.24 858.07 292.63 854.72 280.79 852.44 C 270.57 850.13 260.26 848.19 250.20 845.24 C 241.60 842.82 232.87 840.74 224.60 837.32 C 217.01 834.19 209.22 831.56 201.65 828.38 C 190.68 823.70 179.72 818.98 168.65 814.54 C 155.37 809.74 142.13 804.81 128.98 799.66 C 125.30 798.02 121.53 796.24 118.93 793.03 C 117.95 791.70 117.02 790.35 116.15 788.95 C 111.22 779.14 109.44 768.23 106.12 757.86 C 104.59 751.97 103.61 745.96 102.29 740.03 C 101.85 736.67 100.37 732.69 102.89 729.80 C 107.97 722.99 112.14 715.55 116.10 708.05 C 121.19 696.79 126.71 685.71 130.81 674.03 C 135.23 661.79 139.87 649.61 143.96 637.25 C 151.14 614.81 161.59 593.23 164.89 569.71 C 172.74 569.63 180.87 570.16 188.31 567.13 C 201.81 561.91 212.65 551.82 222.66 541.66 C 234.63 530.34 245.23 517.36 252.71 502.61 C 257.92 492.93 262.12 482.74 266.73 472.77 C 268.40 469.83 266.03 466.88 264.86 464.24 C 257.82 449.91 246.84 437.72 241.74 422.40 C 237.10 410.24 231.92 398.31 226.71 386.39 C 223.70 379.51 220.09 372.65 214.50 367.51 C 211.64 364.83 208.04 363.19 204.92 360.87 C 203.52 360.12 203.61 358.49 203.47 357.14 C 206.79 350.39 211.62 344.11 218.05 340.08 M 285.49 544.62 C 280.69 554.76 281.54 567.10 287.28 576.68 C 296.39 593.02 318.61 600.67 335.60 592.41 C 335.57 589.66 335.57 586.91 335.48 584.16 C 332.91 585.03 330.39 586.07 327.77 586.81 C 312.42 591.14 294.69 580.75 291.44 565.05 C 291.06 558.83 290.29 552.02 293.58 546.40 C 298.81 536.09 310.45 529.35 321.99 530.14 C 326.70 530.05 331.04 532.05 335.51 533.20 C 335.40 530.51 336.05 527.66 335.17 525.08 C 316.96 517.15 293.37 526.32 285.49 544.62 M 343.67 524.95 C 343.60 547.64 343.57 570.34 343.69 593.04 C 345.54 595.45 349.00 593.97 351.63 594.31 C 351.76 582.71 351.68 571.11 351.67 559.52 C 362.23 559.38 372.79 559.46 383.35 559.47 C 383.33 571.08 383.25 582.70 383.39 594.31 C 386.03 594.00 389.40 595.39 391.40 593.12 C 391.45 569.96 391.47 546.79 391.39 523.63 C 388.71 523.58 386.03 523.58 383.36 523.63 C 383.27 532.96 383.35 542.29 383.32 551.62 C 372.78 551.59 362.24 551.66 351.71 551.59 C 351.65 542.27 351.74 532.96 351.67 523.65 C 349.04 524.03 345.37 522.29 343.67 524.95 M 405.51 523.63 C 405.34 546.98 405.60 570.33 405.38 593.68 C 408.84 594.65 412.46 594.26 416.01 594.38 C 423.32 594.20 430.67 594.50 438.00 594.26 C 440.77 592.75 438.94 588.95 439.51 586.41 C 430.98 584.91 422.23 586.02 413.61 585.73 C 413.61 577.04 413.59 568.36 413.62 559.67 C 421.20 559.62 428.77 559.75 436.35 559.60 C 436.11 557.25 437.23 554.31 435.13 552.57 C 428.20 552.33 421.25 552.75 414.33 552.46 L 413.64 551.97 C 413.51 545.09 413.65 538.20 413.61 531.31 C 421.62 531.34 429.62 531.39 437.63 531.29 C 437.67 528.74 437.67 526.19 437.65 523.64 C 426.93 523.56 416.22 523.59 405.51 523.63 M 451.77 523.77 C 451.41 546.86 451.64 569.98 451.65 593.07 C 453.57 595.42 457.00 593.98 459.64 594.32 C 459.84 583.23 459.53 572.14 459.78 561.06 C 460.07 560.72 460.65 560.05 460.94 559.72 C 468.09 559.54 475.24 559.77 482.39 559.63 C 482.42 557.33 482.47 555.02 482.26 552.73 C 474.76 552.24 467.23 552.68 459.73 552.52 C 459.66 545.47 459.71 538.42 459.69 531.37 C 467.46 531.22 475.23 531.52 482.99 531.25 C 485.50 529.40 483.76 526.03 483.51 523.53 C 472.93 523.80 462.33 523.32 451.77 523.77 Z" />
</g>
<g id="#5a629ffe">
<path fill="#5a629f" opacity="1.00" d=" M 414.11 96.10 C 415.19 93.16 415.98 90.12 416.87 87.11 C 417.86 89.81 419.48 92.21 421.11 94.56 C 420.36 94.91 419.62 95.26 418.89 95.61 C 417.94 94.74 417.00 93.88 416.05 93.02 C 415.39 94.04 414.74 95.07 414.11 96.10 Z" />
<path fill="#5a629f" opacity="1.00" d=" M 384.22 131.80 C 385.47 131.78 386.71 131.76 387.96 131.72 C 387.84 134.52 387.58 137.30 387.25 140.08 C 387.35 137.32 387.17 134.56 386.80 131.83 C 385.37 133.70 384.38 135.89 384.16 138.24 C 383.54 143.24 383.07 148.27 382.16 153.23 C 382.56 146.06 383.45 138.93 384.22 131.80 Z" />
<path fill="#5a629f" opacity="1.00" d=" M 526.05 335.42 C 528.03 336.64 529.98 337.91 531.94 339.17 C 530.20 338.42 528.43 337.73 526.68 337.04 C 525.45 346.17 524.16 355.34 521.04 364.06 C 522.98 354.56 524.60 345.00 526.05 335.42 Z" />
<path fill="#5a629f" opacity="1.00" d=" M 218.05 340.08 C 220.35 338.62 222.83 337.47 225.31 336.36 C 227.55 342.07 229.21 347.98 229.98 354.08 C 228.27 348.60 226.84 343.05 225.23 337.54 C 222.83 338.37 220.42 339.15 218.05 340.08 Z" />
<path fill="#5a629f" opacity="1.00" d=" M 623.28 806.99 C 627.42 804.07 631.65 801.24 635.50 797.92 C 635.64 807.61 635.44 817.32 636.29 826.99 C 636.72 834.99 636.26 843.01 636.76 851.01 C 637.68 858.65 637.23 866.36 637.55 874.03 C 637.43 882.00 639.09 889.85 639.65 897.78 C 640.71 909.19 643.33 920.80 649.50 930.61 C 654.97 938.70 663.26 944.60 672.30 948.13 C 665.92 947.83 659.59 947.07 653.29 946.08 C 629.30 943.38 605.14 942.75 581.05 941.54 C 548.21 941.25 515.36 941.25 482.52 941.70 C 473.52 942.40 464.49 942.37 455.49 942.77 C 443.61 943.71 431.70 944.06 419.84 945.19 C 413.09 946.10 406.25 945.62 399.60 944.18 C 399.39 918.75 399.49 893.33 399.44 867.90 C 397.45 867.85 395.47 867.81 393.49 867.80 C 393.46 893.02 393.78 918.24 393.46 943.45 C 384.22 942.90 375.03 941.75 365.84 940.70 C 351.90 939.52 337.95 938.51 323.97 938.30 C 309.35 937.03 294.66 937.57 280.00 937.36 C 263.00 937.08 246.00 937.41 229.00 937.49 C 197.60 937.28 166.25 939.52 135.02 942.62 C 126.42 943.07 118.07 945.48 109.46 945.78 C 114.56 941.86 119.62 937.63 122.97 932.04 C 125.54 928.16 127.35 923.78 128.10 919.18 C 130.54 907.25 129.47 895.03 129.51 882.95 C 129.58 875.29 128.35 867.65 128.96 860.00 C 130.27 839.90 127.69 819.75 128.98 799.66 C 142.13 804.81 155.37 809.74 168.65 814.54 C 179.72 818.98 190.68 823.70 201.65 828.38 C 209.22 831.56 217.01 834.19 224.60 837.32 C 232.87 840.74 241.60 842.82 250.20 845.24 C 260.26 848.19 270.57 850.13 280.79 852.44 C 292.63 854.72 304.24 858.07 316.16 859.98 C 328.10 861.99 340.02 864.17 351.98 866.12 C 371.58 868.05 391.48 868.62 411.00 865.48 C 422.31 863.70 433.73 862.57 444.98 860.38 C 457.30 857.55 469.51 854.29 481.83 851.46 C 497.73 847.08 513.31 841.66 529.10 836.94 C 535.93 836.21 542.78 835.68 549.56 834.54 C 559.79 833.02 569.72 830.08 579.80 827.82 C 589.98 825.57 599.84 822.11 609.66 818.64 C 615.51 816.60 619.66 811.77 623.28 806.99 Z" />
</g>
<g id="#785c4efe">
<path fill="#785c4e" opacity="1.00" d=" M 521.62 90.02 C 522.23 90.26 522.85 90.49 523.48 90.71 C 523.26 134.83 523.46 178.97 523.38 223.09 C 523.37 225.03 523.01 226.93 522.70 228.83 C 520.18 230.29 518.21 232.51 517.14 235.22 C 510.35 251.47 503.32 267.83 500.28 285.28 C 499.17 291.58 499.70 298.47 496.04 304.04 C 488.56 315.99 486.23 330.24 484.69 344.02 C 484.26 349.67 480.63 354.20 477.83 358.88 C 473.50 365.77 469.97 373.34 464.11 379.11 C 460.39 382.83 455.32 384.56 450.45 386.17 C 451.06 382.58 452.18 378.95 451.75 375.28 C 450.21 371.16 446.46 368.18 445.43 363.82 C 444.14 358.77 443.56 353.49 441.26 348.74 C 438.67 343.32 435.34 338.16 431.11 333.86 C 427.72 330.37 422.40 331.12 417.99 330.74 C 406.27 330.77 394.67 328.91 382.97 328.59 C 373.30 328.39 363.63 326.93 353.97 328.00 C 338.54 329.47 322.62 332.69 309.65 341.63 C 300.61 347.82 294.27 356.90 287.96 365.67 C 279.95 361.48 271.60 357.36 265.43 350.57 C 260.61 345.42 258.34 338.53 253.93 333.07 C 250.63 328.96 247.00 324.97 245.03 320.00 C 241.37 310.94 238.34 301.63 235.78 292.21 C 233.38 283.25 229.89 274.42 229.77 265.02 C 229.65 254.76 229.39 244.33 226.55 234.40 C 225.95 231.96 223.39 231.04 221.58 229.70 L 221.52 229.08 C 226.60 227.97 231.50 226.24 236.47 224.76 C 260.55 217.09 285.13 211.06 309.99 206.50 C 342.46 201.08 375.64 199.73 408.40 203.11 C 444.80 206.80 480.42 215.96 515.21 227.06 C 517.37 227.48 519.69 228.92 521.85 227.83 C 522.01 227.47 522.34 226.75 522.51 226.39 C 522.67 183.58 522.47 140.76 522.61 97.95 C 522.64 95.27 522.40 92.59 521.62 90.02 M 341.39 206.60 C 333.80 208.21 326.81 211.94 320.69 216.64 C 317.17 219.80 313.82 223.15 310.51 226.52 C 304.72 233.71 300.42 242.10 298.10 251.04 C 296.85 255.91 297.20 260.99 297.39 265.96 C 297.59 276.55 304.46 286.62 314.12 290.88 C 319.75 293.33 326.14 294.11 332.15 292.75 C 351.65 288.81 367.42 273.02 373.80 254.51 C 377.04 246.79 377.00 238.23 376.22 230.04 C 375.12 223.09 371.89 216.22 366.28 211.79 C 359.46 206.16 349.89 204.37 341.39 206.60 M 404.29 208.95 C 392.66 210.81 383.07 220.38 380.49 231.75 C 378.83 239.20 379.01 247.14 381.24 254.46 C 386.90 275.55 405.22 292.95 426.95 296.36 C 434.52 297.34 442.45 296.02 449.01 292.04 C 457.45 286.75 462.93 276.98 462.76 266.98 C 463.62 254.51 459.04 242.16 451.84 232.13 C 446.90 226.42 441.85 220.55 435.26 216.68 C 426.20 210.88 415.13 206.96 404.29 208.95 M 416.70 299.04 C 418.54 301.60 420.91 303.71 422.84 306.20 C 422.22 309.22 420.35 312.14 417.66 313.70 C 410.85 315.00 403.73 313.23 396.98 315.09 C 392.87 316.24 389.55 319.80 385.04 319.51 C 379.34 319.47 373.63 319.54 367.94 319.38 C 364.32 319.55 361.93 316.52 359.46 314.39 C 356.01 315.50 352.61 316.88 349.00 317.34 C 344.76 317.88 340.23 316.03 337.66 312.61 C 337.70 309.56 338.58 306.59 338.85 303.56 C 336.47 305.92 335.16 309.31 335.49 312.67 C 336.89 315.75 340.07 317.65 343.10 318.90 C 348.29 320.91 353.67 318.50 358.69 317.10 C 360.87 318.94 362.94 321.54 366.06 321.60 C 372.04 321.92 378.05 321.75 384.05 321.85 C 390.05 322.05 395.41 318.89 401.26 318.07 C 406.79 316.97 412.56 317.37 418.02 315.91 C 422.01 313.69 423.73 309.09 425.84 305.28 C 423.04 302.86 420.09 300.57 416.70 299.04 Z" />
<path fill="#785c4e" opacity="1.00" d=" M 368.01 339.87 C 375.66 339.69 383.34 339.75 390.97 338.95 C 398.66 338.17 406.65 339.72 413.29 343.75 C 423.73 350.04 430.69 361.33 432.66 373.25 C 433.54 378.58 434.08 383.97 435.61 389.17 C 422.40 390.06 409.15 389.78 395.92 389.63 C 393.88 389.47 391.42 389.80 389.94 388.07 C 384.79 382.65 381.67 375.47 375.83 370.68 C 370.11 370.74 365.74 375.17 362.14 379.13 C 358.95 382.48 356.64 386.80 352.71 389.36 C 343.31 389.30 334.29 385.84 325.71 382.24 C 320.97 380.22 315.90 379.19 310.86 378.24 C 305.44 377.37 301.52 373.21 297.09 370.34 C 304.12 358.62 314.49 348.14 327.73 343.79 C 340.73 339.56 354.55 340.57 368.01 339.87 M 344.14 358.06 C 344.14 358.79 344.14 360.24 344.14 360.97 C 350.17 360.12 356.10 358.48 362.22 358.30 C 370.83 357.91 379.37 359.25 387.90 360.15 C 395.26 360.98 402.09 364.34 409.51 364.87 C 406.30 361.57 401.64 360.78 397.42 359.55 C 388.84 356.99 379.82 356.80 370.97 355.85 C 361.97 354.93 352.92 356.05 344.14 358.06 Z" />
<path fill="#785c4e" opacity="1.00" d=" M 60.74 519.23 C 73.04 526.34 86.41 531.23 99.57 536.43 C 121.53 544.76 143.70 552.51 165.84 560.33 C 165.62 563.46 165.37 566.60 164.89 569.71 C 161.59 593.23 151.14 614.81 143.96 637.25 C 139.87 649.61 135.23 661.79 130.81 674.03 C 126.71 685.71 121.19 696.79 116.10 708.05 C 112.14 715.55 107.97 722.99 102.89 729.80 C 100.37 732.69 101.85 736.67 102.29 740.03 C 103.61 745.96 104.59 751.97 106.12 757.86 C 109.44 768.23 111.22 779.14 116.15 788.95 C 109.64 779.83 108.89 768.28 105.28 757.96 C 96.10 766.81 83.40 770.62 71.04 772.27 C 52.46 773.72 33.21 772.43 15.92 764.98 C 10.17 762.84 5.25 759.13 0.00 756.05 L 0.00 749.34 C 3.35 744.60 4.34 738.81 6.54 733.55 C 11.43 721.77 18.81 710.83 20.94 698.06 C 22.51 689.11 23.14 680.03 24.25 671.02 C 26.64 646.99 29.10 622.92 33.14 599.10 C 35.49 588.33 37.31 577.25 42.24 567.28 C 43.84 563.94 46.13 560.78 46.39 556.98 C 47.35 543.24 54.73 531.24 60.74 519.23 Z" />
<path fill="#785c4e" opacity="1.00" d=" M 692.32 542.29 C 697.47 539.90 702.71 537.59 707.34 534.27 C 710.71 541.68 714.76 548.89 716.85 556.81 C 718.27 561.97 717.60 567.72 720.46 572.44 C 724.86 579.97 727.20 588.44 729.05 596.90 C 733.21 613.56 734.69 630.70 736.81 647.70 C 739.14 667.11 740.39 686.65 743.24 706.01 C 744.85 718.62 751.92 729.49 756.89 740.94 C 759.02 747.73 761.37 754.54 762.39 761.61 C 763.08 764.87 760.33 767.22 758.13 769.11 C 746.44 776.48 732.64 779.84 719.04 781.44 C 707.57 781.75 695.85 782.68 684.61 779.81 C 675.27 777.69 666.08 773.98 659.11 767.21 C 659.41 757.59 664.06 748.30 662.31 738.61 C 661.53 740.65 660.87 742.76 660.30 744.87 C 660.12 741.85 660.89 738.54 659.08 735.89 C 655.28 729.31 650.93 723.03 647.79 716.10 C 644.06 707.84 640.12 699.67 636.76 691.25 C 632.49 680.76 629.12 669.94 625.03 659.38 C 622.41 652.57 620.55 645.50 618.05 638.65 C 613.61 626.26 609.08 613.90 604.92 601.42 C 602.76 594.17 601.19 586.76 600.11 579.28 C 607.64 575.87 615.49 573.24 623.17 570.21 C 646.36 561.27 669.59 552.36 692.32 542.29 Z" />
</g>
<g id="#d93a47fe">
<path fill="#d93a47" opacity="1.00" d=" M 545.81 353.57 C 552.59 354.07 559.28 355.72 565.58 358.28 C 586.60 365.91 603.79 381.04 618.98 397.02 C 627.82 406.96 636.26 417.29 643.64 428.38 C 664.45 459.26 684.64 490.58 705.84 521.20 C 707.62 523.99 709.88 526.62 710.68 529.91 C 709.81 531.53 708.58 532.92 707.34 534.27 C 702.71 537.59 697.47 539.90 692.32 542.29 C 669.59 552.36 646.36 561.27 623.17 570.21 C 615.49 573.24 607.64 575.87 600.11 579.28 C 601.19 586.76 602.76 594.17 604.92 601.42 C 590.85 593.20 585.50 576.77 574.22 565.78 C 561.11 552.38 549.69 537.45 538.94 522.13 C 528.29 507.57 518.64 492.33 508.43 477.48 C 504.66 471.94 500.91 466.24 498.71 459.87 C 499.59 456.09 501.63 452.74 503.37 449.31 C 507.38 441.77 511.22 434.03 513.34 425.71 C 516.36 414.09 519.21 402.42 522.98 391.01 C 525.62 382.02 528.12 372.64 534.19 365.26 C 537.51 360.81 542.86 358.34 545.81 353.57 Z" />
<path fill="#d93a47" opacity="1.00" d=" M 200.69 360.58 C 202.42 360.32 202.73 358.42 203.47 357.14 C 203.61 358.49 203.52 360.12 204.92 360.87 C 208.04 363.19 211.64 364.83 214.50 367.51 C 220.09 372.65 223.70 379.51 226.71 386.39 C 231.92 398.31 237.10 410.24 241.74 422.40 C 246.84 437.72 257.82 449.91 264.86 464.24 C 266.03 466.88 268.40 469.83 266.73 472.77 C 262.12 482.74 257.92 492.93 252.71 502.61 C 245.23 517.36 234.63 530.34 222.66 541.66 C 212.65 551.82 201.81 561.91 188.31 567.13 C 180.87 570.16 172.74 569.63 164.89 569.71 C 165.37 566.60 165.62 563.46 165.84 560.33 C 143.70 552.51 121.53 544.76 99.57 536.43 C 86.41 531.23 73.04 526.34 60.74 519.23 C 60.15 517.42 58.60 515.47 59.59 513.52 C 61.49 509.94 64.23 506.89 66.54 503.56 C 82.73 481.37 98.60 458.95 114.62 436.64 C 130.39 414.22 147.47 391.98 170.18 376.14 C 179.31 369.20 189.74 363.98 200.69 360.58 Z" />
<path fill="#d93a47" opacity="1.00" d=" M 478.27 406.40 C 482.60 404.46 487.03 402.68 491.10 400.21 C 488.55 404.96 487.01 410.15 485.03 415.15 C 480.91 426.20 476.38 437.12 473.03 448.43 C 464.09 449.74 454.98 449.69 446.01 448.81 C 438.66 448.35 431.28 448.72 423.95 448.08 C 413.99 447.17 403.97 447.82 394.00 446.99 C 384.28 446.24 374.50 446.81 364.79 445.84 C 354.87 445.24 344.91 445.77 335.01 444.88 C 319.12 443.71 303.21 445.03 287.41 446.62 C 279.94 431.78 272.68 416.82 264.67 402.25 C 291.83 416.99 322.66 422.62 352.92 426.95 C 363.90 428.17 374.98 427.77 386.00 427.49 C 397.15 427.18 408.28 425.89 419.12 423.21 C 439.02 418.37 459.62 415.28 478.27 406.40 Z" />
<path fill="#d93a47" opacity="1.00" d=" M 589.51 821.11 C 601.34 818.00 613.26 814.27 623.28 806.99 C 619.66 811.77 615.51 816.60 609.66 818.64 C 599.84 822.11 589.98 825.57 579.80 827.82 C 569.72 830.08 559.79 833.02 549.56 834.54 C 542.78 835.68 535.93 836.21 529.10 836.94 C 533.40 835.62 537.72 834.35 542.10 833.30 C 557.96 829.46 573.63 824.86 589.51 821.11 Z" />
</g>
</svg>
