<?xml version="1.0" encoding="UTF-8" ?>
<!DOCTYPE svg PUBLIC "-//W3C//DTD SVG 1.1//EN" "http://www.w3.org/Graphics/SVG/1.1/DTD/svg11.dtd">
<svg width="136pt" height="196pt" viewBox="0 0 136 196" version="1.1" xmlns="http://www.w3.org/2000/svg">
<g id="#f2db49ff">
<path fill="#f2db49" opacity="1.00" d=" M 60.31 2.53 C 60.71 2.13 61.53 1.34 61.93 0.95 C 62.95 2.05 63.96 3.15 64.98 4.26 C 66.40 3.51 67.83 2.78 69.30 2.13 C 70.36 3.26 71.45 4.37 72.60 5.41 C 79.10 3.17 86.91 5.86 91.09 11.23 C 92.97 11.91 96.00 11.68 96.64 13.99 C 96.20 14.28 95.30 14.87 94.85 15.16 C 99.35 17.06 101.66 21.37 103.36 25.65 C 107.79 29.94 112.87 33.79 118.79 35.74 C 120.02 37.67 121.39 39.51 122.83 41.29 C 122.56 41.99 122.01 43.37 121.73 44.07 C 124.91 46.15 126.28 49.65 126.41 53.34 C 127.46 53.63 128.52 53.92 129.57 54.22 C 129.64 60.85 131.23 67.44 134.75 73.09 C 133.84 82.11 132.29 91.20 129.12 99.74 C 131.64 103.25 128.89 106.96 127.94 110.45 C 127.59 117.05 127.74 123.66 127.43 130.27 C 126.20 132.31 125.04 134.49 124.78 136.90 C 125.61 139.69 124.59 142.96 126.88 145.20 C 126.34 145.29 125.27 145.48 124.73 145.57 C 121.44 137.96 117.05 130.90 112.26 124.15 C 118.34 117.58 123.58 110.07 126.53 101.56 C 127.80 98.70 124.78 96.51 124.16 93.90 C 122.09 86.10 119.30 78.33 119.18 70.18 C 118.31 69.20 117.44 68.22 116.58 67.24 C 117.19 62.27 116.43 57.33 113.98 52.94 C 112.82 48.47 107.61 47.17 106.03 42.92 C 101.43 40.36 97.63 36.23 96.48 30.98 C 97.98 30.72 99.48 30.46 100.98 30.21 C 100.69 29.58 100.12 28.32 99.84 27.70 C 95.64 26.00 91.40 24.03 86.73 24.35 C 85.80 25.41 84.86 26.45 83.92 27.50 C 81.96 27.01 80.01 26.52 78.06 26.03 C 77.29 26.85 76.53 27.66 75.76 28.48 C 73.39 28.04 71.01 27.61 68.63 27.19 C 67.57 28.08 66.52 28.97 65.46 29.86 C 62.37 29.63 59.16 28.99 56.16 30.11 C 54.48 30.74 52.69 30.72 50.93 30.67 C 50.10 31.93 49.29 33.19 48.47 34.45 C 46.84 34.78 45.20 35.10 43.58 35.44 C 42.68 36.71 41.82 38.02 40.76 39.17 C 39.09 39.70 37.29 39.39 35.56 39.43 C 32.63 43.12 29.37 46.69 27.50 51.07 C 27.47 53.72 28.28 56.33 28.09 58.99 C 27.33 63.64 23.19 67.08 23.11 71.92 C 22.58 81.96 22.27 92.00 22.51 102.05 C 23.08 102.49 24.20 103.38 24.77 103.82 C 24.37 106.94 23.87 110.04 23.26 113.12 C 24.15 113.75 25.03 114.38 25.91 115.02 C 26.66 119.85 31.51 122.19 33.96 126.08 C 33.66 126.65 33.06 127.79 32.76 128.36 C 28.37 137.37 24.93 146.84 22.37 156.53 C 21.46 155.19 20.55 153.85 19.64 152.51 C 18.47 153.73 17.30 154.95 16.11 156.15 C 15.12 154.43 15.10 152.59 15.94 150.81 C 12.55 149.23 9.20 147.57 5.80 146.03 C 5.96 140.84 5.25 135.54 2.59 130.99 C 5.70 123.54 4.25 115.12 1.68 107.74 C 8.30 99.66 3.70 88.71 0.99 79.98 C 5.75 78.61 5.82 72.98 4.55 69.06 C 3.40 66.90 5.22 65.39 6.57 63.98 C 6.24 62.77 5.38 61.67 5.36 60.39 C 7.63 58.80 5.70 56.32 5.18 54.32 C 7.04 53.15 8.98 52.08 10.67 50.67 C 10.96 47.43 10.66 44.12 9.58 41.04 C 13.31 39.78 15.12 36.14 16.61 32.80 C 18.93 31.07 21.26 29.26 23.00 26.92 C 23.72 24.85 24.04 22.66 24.84 20.61 C 26.25 20.25 27.66 19.89 29.07 19.53 C 29.54 17.73 30.04 15.93 30.56 14.15 C 31.19 14.60 32.45 15.51 33.08 15.97 C 33.15 13.98 33.18 12.00 33.22 10.01 C 34.21 10.63 35.20 11.25 36.20 11.87 C 36.21 11.21 36.23 9.89 36.24 9.23 C 39.41 9.78 39.85 5.70 41.83 4.03 C 43.90 5.02 46.11 5.64 48.41 5.82 C 48.46 4.48 48.51 3.13 48.55 1.79 C 52.48 1.67 56.43 1.77 60.31 2.53 Z" />
</g>
<g id="#f6d6b2ff">
<path fill="#f6d6b2" opacity="1.00" d=" M 86.73 24.35 C 91.40 24.03 95.64 26.00 99.84 27.70 C 100.12 28.32 100.69 29.58 100.98 30.21 C 99.48 30.46 97.98 30.72 96.48 30.98 C 97.63 36.23 101.43 40.36 106.03 42.92 C 107.61 47.17 112.82 48.47 113.98 52.94 C 116.43 57.33 117.19 62.27 116.58 67.24 C 117.44 68.22 118.31 69.20 119.18 70.18 C 119.30 78.33 122.09 86.10 124.16 93.90 C 124.78 96.51 127.80 98.70 126.53 101.56 C 123.58 110.07 118.34 117.58 112.26 124.15 C 112.13 124.31 111.87 124.63 111.74 124.78 C 101.38 134.72 87.40 140.91 72.98 141.13 L 72.10 141.15 C 59.67 141.27 47.32 137.06 37.42 129.57 C 36.11 128.57 35.01 127.34 33.96 126.08 C 31.51 122.19 26.66 119.85 25.91 115.02 C 25.03 114.38 24.15 113.75 23.26 113.12 C 23.87 110.04 24.37 106.94 24.77 103.82 C 24.20 103.38 23.08 102.49 22.51 102.05 C 22.27 92.00 22.58 81.96 23.11 71.92 C 23.19 67.08 27.33 63.64 28.09 58.99 C 28.28 56.33 27.47 53.72 27.50 51.07 C 29.37 46.69 32.63 43.12 35.56 39.43 C 37.29 39.39 39.09 39.70 40.76 39.17 C 41.82 38.02 42.68 36.71 43.58 35.44 C 45.20 35.10 46.84 34.78 48.47 34.45 C 49.29 33.19 50.10 31.93 50.93 30.67 C 52.69 30.72 54.48 30.74 56.16 30.11 C 59.16 28.99 62.37 29.63 65.46 29.86 C 66.52 28.97 67.57 28.08 68.63 27.19 C 71.01 27.61 73.39 28.04 75.76 28.48 C 76.53 27.66 77.29 26.85 78.06 26.03 C 80.01 26.52 81.96 27.01 83.92 27.50 C 84.86 26.45 85.80 25.41 86.73 24.35 M 52.29 66.41 C 44.10 68.71 38.50 76.78 37.27 84.92 C 35.81 93.95 43.84 103.17 53.02 102.60 C 63.05 101.95 71.99 92.19 71.05 82.05 C 71.01 78.35 71.35 74.28 68.85 71.22 C 65.53 65.59 58.05 64.75 52.29 66.41 M 80.25 66.41 C 77.30 67.43 75.07 69.91 73.61 72.60 C 71.91 75.43 73.05 78.84 72.74 81.94 C 71.37 90.95 78.52 99.44 86.66 102.37 C 94.25 105.40 103.41 100.39 105.57 92.66 C 107.53 86.40 104.75 79.85 101.33 74.65 C 96.85 67.97 88.10 64.30 80.25 66.41 M 62.41 117.58 C 63.35 118.69 64.48 119.66 65.93 120.03 C 71.01 121.79 76.94 122.47 81.87 119.86 C 79.23 119.43 76.69 120.72 74.04 120.50 C 69.94 120.67 66.18 118.91 62.41 117.58 Z" />
</g>
<g id="#ffffffff">
<path fill="#ffffff" opacity="1.00" d=" M 52.29 66.41 C 58.05 64.75 65.53 65.59 68.85 71.22 C 71.35 74.28 71.01 78.35 71.05 82.05 C 71.99 92.19 63.05 101.95 53.02 102.60 C 43.84 103.17 35.81 93.95 37.27 84.92 C 38.50 76.78 44.10 68.71 52.29 66.41 M 61.64 82.77 C 60.36 84.24 60.39 86.88 62.84 86.99 C 65.28 86.92 65.19 83.92 63.70 82.67 C 63.19 82.70 62.16 82.75 61.64 82.77 Z" />
<path fill="#ffffff" opacity="1.00" d=" M 80.25 66.41 C 88.10 64.30 96.85 67.97 101.33 74.65 C 104.75 79.85 107.53 86.40 105.57 92.66 C 103.41 100.39 94.25 105.40 86.66 102.37 C 78.52 99.44 71.37 90.95 72.74 81.94 C 73.05 78.84 71.91 75.43 73.61 72.60 C 75.07 69.91 77.30 67.43 80.25 66.41 M 80.87 82.80 C 80.55 83.37 79.90 84.52 79.57 85.09 C 80.56 87.38 83.44 87.38 84.40 85.06 C 84.08 84.50 83.43 83.37 83.11 82.81 C 82.36 82.80 81.61 82.80 80.87 82.80 Z" />
</g>
<g id="#192018ff">
<path fill="#192018" opacity="1.00" d=" M 61.64 82.77 C 62.16 82.75 63.19 82.70 63.70 82.67 C 65.19 83.92 65.28 86.92 62.84 86.99 C 60.39 86.88 60.36 84.24 61.64 82.77 Z" />
<path fill="#192018" opacity="1.00" d=" M 80.87 82.80 C 81.61 82.80 82.36 82.80 83.11 82.81 C 83.43 83.37 84.08 84.50 84.40 85.06 C 83.44 87.38 80.56 87.38 79.57 85.09 C 79.90 84.52 80.55 83.37 80.87 82.80 Z" />
<path fill="#192018" opacity="1.00" d=" M 62.41 117.58 C 66.18 118.91 69.94 120.67 74.04 120.50 C 76.69 120.72 79.23 119.43 81.87 119.86 C 76.94 122.47 71.01 121.79 65.93 120.03 C 64.48 119.66 63.35 118.69 62.41 117.58 Z" />
<path fill="#192018" opacity="1.00" d=" M 72.34 146.26 C 72.79 147.78 72.84 149.38 72.83 150.96 C 72.70 161.84 72.84 172.72 72.74 183.59 C 87.79 183.09 102.77 181.05 117.48 177.84 C 117.37 182.73 117.44 187.63 117.38 192.53 C 120.42 193.23 123.43 194.09 126.33 195.23 C 91.70 195.56 57.05 195.46 22.41 195.28 C 25.38 193.96 28.42 192.83 31.56 191.99 C 31.65 187.86 31.62 183.72 31.59 179.59 C 44.68 182.87 58.22 183.93 71.69 183.63 C 71.66 172.75 71.72 161.88 71.64 151.00 C 71.69 149.41 71.64 147.73 72.34 146.26 Z" />
<path fill="#192018" opacity="1.00" d=" M 108.42 146.26 C 109.75 150.14 110.35 154.20 111.03 158.23 C 111.22 158.31 111.62 158.45 111.82 158.52 C 115.05 158.88 117.77 162.08 116.34 165.30 C 115.29 168.27 111.86 168.39 109.27 167.75 C 108.63 166.23 107.69 164.71 107.76 163.01 C 108.40 160.96 110.05 159.10 109.70 156.84 C 109.36 153.30 108.67 149.81 108.42 146.26 M 109.15 162.00 C 107.83 164.42 110.14 166.45 112.00 167.56 C 113.71 166.59 116.08 165.34 115.49 162.94 C 115.41 159.64 110.16 158.88 109.15 162.00 Z" />
<path fill="#192018" opacity="1.00" d=" M 64.52 149.02 C 65.55 147.77 67.45 147.11 68.48 148.74 C 69.37 150.25 67.91 151.41 66.98 152.40 C 65.58 151.68 64.01 150.91 64.52 149.02 Z" />
<path fill="#192018" opacity="1.00" d=" M 32.66 148.57 C 32.47 152.08 31.98 155.57 31.52 159.06 C 32.53 160.42 34.02 161.57 34.46 163.27 C 34.39 164.84 33.81 166.32 33.37 167.82 C 30.98 168.45 27.91 169.31 26.10 167.00 C 23.85 164.39 25.50 160.66 28.25 159.21 C 28.75 159.23 29.74 159.28 30.23 159.30 C 30.88 155.69 31.63 152.09 32.66 148.57 M 27.31 161.44 C 25.50 162.79 25.85 166.24 28.07 167.04 C 30.23 168.46 33.45 166.52 33.34 163.98 C 33.45 161.04 29.36 159.29 27.31 161.44 Z" />
<path fill="#192018" opacity="1.00" d=" M 64.95 159.95 C 67.15 158.45 70.01 161.09 68.18 163.21 C 66.03 164.87 63.22 162.17 64.95 159.95 Z" />
<path fill="#192018" opacity="1.00" d=" M 64.49 177.49 C 63.83 175.54 65.35 172.55 67.51 174.43 C 69.73 176.58 66.47 178.14 64.49 177.49 Z" />
</g>
<g id="#9b1e28ff">
<path fill="#9b1e28" opacity="1.00" d=" M 111.74 124.78 C 111.87 124.63 112.13 124.31 112.26 124.15 C 117.05 130.90 121.44 137.96 124.73 145.57 C 127.58 152.63 129.88 160.16 129.32 167.87 C 130.04 162.46 126.73 156.39 121.02 155.57 C 117.58 154.74 114.51 156.67 111.82 158.52 C 111.62 158.45 111.22 158.31 111.03 158.23 C 110.35 154.20 109.75 150.14 108.42 146.26 C 108.67 149.81 109.36 153.30 109.70 156.84 C 110.05 159.10 108.40 160.96 107.76 163.01 C 107.69 164.71 108.63 166.23 109.27 167.75 C 110.97 172.49 115.30 175.91 120.45 175.72 C 120.62 176.06 120.98 176.75 121.15 177.09 C 119.93 177.34 118.70 177.59 117.48 177.84 C 102.77 181.05 87.79 183.09 72.74 183.59 C 72.84 172.72 72.70 161.84 72.83 150.96 C 72.84 149.38 72.79 147.78 72.34 146.26 C 71.64 147.73 71.69 149.41 71.64 151.00 C 71.72 161.88 71.66 172.75 71.69 183.63 C 58.22 183.93 44.68 182.87 31.59 179.59 C 29.34 179.10 27.17 178.33 25.03 177.50 C 29.64 176.32 32.54 172.34 33.37 167.82 C 33.81 166.32 34.39 164.84 34.46 163.27 C 34.02 161.57 32.53 160.42 31.52 159.06 C 31.98 155.57 32.47 152.08 32.66 148.57 C 31.63 152.09 30.88 155.69 30.23 159.30 C 29.74 159.28 28.75 159.23 28.25 159.21 C 23.49 157.26 17.68 158.13 14.70 162.64 C 15.03 160.62 15.36 158.61 15.68 156.59 L 16.11 156.15 C 17.30 154.95 18.47 153.73 19.64 152.51 C 20.55 153.85 21.46 155.19 22.37 156.53 C 24.93 146.84 28.37 137.37 32.76 128.36 C 37.17 134.66 44.25 138.21 51.21 140.97 C 57.85 143.44 64.82 145.86 72.02 145.06 C 80.80 147.50 89.32 142.72 96.99 139.00 C 102.91 135.63 110.13 132.07 111.74 124.78 M 64.52 149.02 C 64.01 150.91 65.58 151.68 66.98 152.40 C 67.91 151.41 69.37 150.25 68.48 148.74 C 67.45 147.11 65.55 147.77 64.52 149.02 M 64.95 159.95 C 63.22 162.17 66.03 164.87 68.18 163.21 C 70.01 161.09 67.15 158.45 64.95 159.95 M 64.49 177.49 C 66.47 178.14 69.73 176.58 67.51 174.43 C 65.35 172.55 63.83 175.54 64.49 177.49 Z" />
<path fill="#9b1e28" opacity="1.00" d=" M 72.10 141.15 L 72.98 141.13 C 74.44 143.07 70.54 143.05 72.10 141.15 Z" />
</g>
<g id="#94907cff">
<path fill="#94907c" opacity="1.00" d=" M 72.98 141.13 C 87.40 140.91 101.38 134.72 111.74 124.78 C 110.13 132.07 102.91 135.63 96.99 139.00 C 89.32 142.72 80.80 147.50 72.02 145.06 C 64.82 145.86 57.85 143.44 51.21 140.97 C 44.25 138.21 37.17 134.66 32.76 128.36 C 33.06 127.79 33.66 126.65 33.96 126.08 C 35.01 127.34 36.11 128.57 37.42 129.57 C 47.32 137.06 59.67 141.27 72.10 141.15 C 70.54 143.05 74.44 143.07 72.98 141.13 Z" />
<path fill="#94907c" opacity="1.00" d=" M 111.82 158.52 C 114.51 156.67 117.58 154.74 121.02 155.57 C 126.73 156.39 130.04 162.46 129.32 167.87 C 127.96 171.79 124.66 175.09 120.45 175.72 C 115.30 175.91 110.97 172.49 109.27 167.75 C 111.86 168.39 115.29 168.27 116.34 165.30 C 117.77 162.08 115.05 158.88 111.82 158.52 Z" />
<path fill="#94907c" opacity="1.00" d=" M 14.70 162.64 C 17.68 158.13 23.49 157.26 28.25 159.21 C 25.50 160.66 23.85 164.39 26.10 167.00 C 27.91 169.31 30.98 168.45 33.37 167.82 C 32.54 172.34 29.64 176.32 25.03 177.50 C 17.06 179.12 10.15 169.59 14.70 162.64 Z" />
<path fill="#94907c" opacity="1.00" d=" M 109.15 162.00 C 110.16 158.88 115.41 159.64 115.49 162.94 C 116.08 165.34 113.71 166.59 112.00 167.56 C 110.14 166.45 107.83 164.42 109.15 162.00 Z" />
<path fill="#94907c" opacity="1.00" d=" M 27.31 161.44 C 29.36 159.29 33.45 161.04 33.34 163.98 C 33.45 166.52 30.23 168.46 28.07 167.04 C 25.85 166.24 25.50 162.79 27.31 161.44 Z" />
</g>
</svg>
