<?xml version="1.0" encoding="UTF-8" ?>
<!DOCTYPE svg PUBLIC "-//W3C//DTD SVG 1.1//EN" "http://www.w3.org/Graphics/SVG/1.1/DTD/svg11.dtd">
<svg width="134pt" height="197pt" viewBox="0 0 134 197" version="1.1" xmlns="http://www.w3.org/2000/svg">
<g id="#ea7bdfff">
<path fill="#ea7bdf" opacity="1.00" d=" M 29.20 11.30 C 39.86 6.17 51.39 2.90 63.05 1.00 C 69.08 -0.17 75.16 1.55 81.00 2.93 C 95.35 6.99 109.75 13.02 120.40 23.79 C 124.59 28.22 128.38 33.20 130.71 38.87 C 129.74 41.51 128.33 44.00 127.69 46.77 C 126.15 46.62 124.60 46.36 123.14 45.81 C 108.84 40.41 94.20 35.71 79.13 32.99 C 73.92 32.18 68.63 31.24 63.34 31.87 C 61.95 32.16 60.58 32.50 59.21 32.83 C 48.44 35.48 37.75 38.64 27.35 42.48 C 21.98 46.90 16.79 53.00 9.08 52.53 C 7.95 55.25 7.02 58.05 6.24 60.90 C 5.75 59.87 5.26 58.84 4.76 57.82 C 3.01 54.01 1.05 50.18 0.50 45.98 C 1.46 42.24 3.78 39.01 5.79 35.75 C 12.18 26.40 20.13 18.07 29.20 11.30 M 56.92 2.93 C 55.60 5.68 59.43 5.73 61.07 6.25 C 66.13 6.76 71.98 7.35 76.29 4.09 C 70.75 0.09 63.10 1.12 56.92 2.93 Z" />
</g>
<g id="#212341ff">
<path fill="#212341" opacity="1.00" d=" M 56.92 2.93 C 63.10 1.12 70.75 0.09 76.29 4.09 C 71.98 7.35 66.13 6.76 61.07 6.25 C 59.43 5.73 55.60 5.68 56.92 2.93 Z" />
<path fill="#212341" opacity="1.00" d=" M 24.01 118.79 C 29.88 124.28 36.55 128.98 44.02 132.02 C 50.70 134.95 57.96 136.08 65.14 137.04 C 80.76 137.30 96.69 132.38 108.66 122.11 C 108.66 124.63 107.76 127.08 105.84 128.78 C 100.33 134.10 93.08 137.09 86.08 139.92 C 80.67 142.17 74.77 142.98 68.95 142.51 C 68.72 156.22 69.25 169.94 68.67 183.64 L 67.64 183.68 C 67.62 169.59 67.38 155.49 67.76 141.40 C 63.23 144.18 57.79 142.30 53.17 140.75 C 44.86 137.62 36.42 134.17 29.54 128.43 C 26.84 126.32 25.39 123.14 24.44 119.93 C 24.33 119.65 24.12 119.08 24.01 118.79 Z" />
<path fill="#212341" opacity="1.00" d=" M 25.82 157.50 C 26.36 154.12 27.13 150.75 28.56 147.62 C 28.34 150.65 27.62 153.62 27.49 156.66 C 27.70 158.48 28.52 160.18 28.79 162.00 C 26.73 166.56 24.88 171.64 20.39 174.37 C 16.97 174.98 13.08 175.12 10.22 172.82 C 7.28 170.79 6.11 167.16 5.93 163.74 C 6.44 161.53 7.13 159.37 7.71 157.19 L 8.16 157.95 C 10.92 156.47 13.68 154.28 17.01 154.69 C 20.02 155.37 22.86 156.61 25.82 157.50 Z" />
<path fill="#212341" opacity="1.00" d=" M 106.26 148.54 C 107.65 152.60 108.24 156.87 108.82 161.11 C 111.61 159.33 114.50 157.02 118.02 157.32 C 121.21 157.34 123.90 159.32 126.17 161.35 C 128.28 165.43 128.70 170.89 125.49 174.53 C 122.59 178.19 117.38 179.08 113.12 177.53 C 109.71 174.70 107.21 171.01 104.27 167.74 C 102.47 164.73 105.33 162.04 107.27 160.04 C 106.78 156.22 106.33 152.39 106.26 148.54 Z" />
</g>
<g id="#f6d6b2ff">
<path fill="#f6d6b2" opacity="1.00" d=" M 59.21 32.83 C 60.58 32.50 61.95 32.16 63.34 31.87 C 65.08 37.96 66.40 44.15 67.81 50.32 C 68.28 46.45 69.00 42.61 69.90 38.82 C 73.87 41.66 77.20 45.23 80.83 48.46 C 86.68 46.50 93.20 47.29 98.44 50.55 C 102.04 53.12 106.58 52.20 110.72 52.32 C 114.14 58.35 114.98 65.46 118.77 71.29 C 120.51 74.22 120.83 77.66 121.39 80.94 C 124.95 84.17 128.09 88.86 126.97 93.88 C 124.00 104.46 117.72 114.00 109.55 121.32 C 109.26 121.58 108.96 121.85 108.66 122.11 C 96.69 132.38 80.76 137.30 65.14 137.04 C 57.96 136.08 50.70 134.95 44.02 132.02 C 36.55 128.98 29.88 124.28 24.01 118.79 C 18.48 112.75 13.70 105.93 10.83 98.20 C 9.91 95.47 8.36 92.45 9.67 89.57 C 11.74 84.28 12.74 78.56 15.58 73.58 C 17.64 70.03 19.45 66.30 22.11 63.15 C 24.53 60.26 27.79 58.16 29.94 55.03 C 33.35 50.08 36.26 44.80 38.93 39.42 C 45.52 40.76 51.58 43.74 57.87 46.00 C 58.78 41.67 58.98 37.24 59.21 32.83 M 48.40 58.54 C 40.20 61.07 34.71 68.99 32.85 77.07 C 30.91 85.24 36.32 94.22 44.40 96.39 C 56.63 99.05 68.96 87.06 67.99 74.92 C 68.04 70.71 68.39 66.04 65.34 62.67 C 61.68 57.23 54.16 56.83 48.40 58.54 M 77.28 58.41 C 72.90 60.56 69.84 65.21 69.45 70.05 C 69.02 75.17 69.14 80.64 71.80 85.19 C 75.28 91.94 82.16 97.33 89.97 97.38 C 99.13 97.28 106.75 88.08 105.29 79.06 C 103.96 70.99 99.30 62.86 91.64 59.35 C 87.19 57.35 81.92 56.69 77.28 58.41 M 58.98 115.30 C 61.08 118.51 65.66 118.59 69.09 119.31 C 72.13 119.28 76.21 119.95 78.35 117.30 C 71.84 119.27 65.04 118.13 58.98 115.30 Z" />
</g>
<g id="#221d22ff">
<path fill="#221d22" opacity="1.00" d=" M 63.34 31.87 C 68.63 31.24 73.92 32.18 79.13 32.99 C 94.20 35.71 108.84 40.41 123.14 45.81 C 124.60 46.36 126.15 46.62 127.69 46.77 C 130.39 50.09 130.77 54.59 131.88 58.58 C 133.79 69.74 133.19 81.55 128.95 92.13 C 128.45 93.71 127.53 95.25 127.69 96.96 C 129.23 115.27 130.56 133.65 130.25 152.04 C 130.50 155.41 128.10 157.99 126.07 160.35 C 124.87 145.93 117.42 133.09 109.55 121.32 C 117.72 114.00 124.00 104.46 126.97 93.88 C 128.09 88.86 124.95 84.17 121.39 80.94 C 120.83 77.66 120.51 74.22 118.77 71.29 C 114.98 65.46 114.14 58.35 110.72 52.32 C 106.58 52.20 102.04 53.12 98.44 50.55 C 93.20 47.29 86.68 46.50 80.83 48.46 C 77.20 45.23 73.87 41.66 69.90 38.82 C 69.00 42.61 68.28 46.45 67.81 50.32 C 66.40 44.15 65.08 37.96 63.34 31.87 Z" />
<path fill="#221d22" opacity="1.00" d=" M 27.35 42.48 C 37.75 38.64 48.44 35.48 59.21 32.83 C 58.98 37.24 58.78 41.67 57.87 46.00 C 51.58 43.74 45.52 40.76 38.93 39.42 C 36.26 44.80 33.35 50.08 29.94 55.03 C 27.79 58.16 24.53 60.26 22.11 63.15 C 19.45 66.30 17.64 70.03 15.58 73.58 C 12.74 78.56 11.74 84.28 9.67 89.57 C 8.36 92.45 9.91 95.47 10.83 98.20 C 13.70 105.93 18.48 112.75 24.01 118.79 C 24.12 119.08 24.33 119.65 24.44 119.93 C 16.68 131.20 10.33 143.65 7.71 157.19 C 7.13 159.37 6.44 161.53 5.93 163.74 C 3.95 162.58 1.90 160.63 2.58 158.09 C 5.68 137.20 7.29 116.03 7.12 94.92 C 2.49 83.22 0.40 69.94 4.76 57.82 C 5.26 58.84 5.75 59.87 6.24 60.90 C 7.02 58.05 7.95 55.25 9.08 52.53 C 16.79 53.00 21.98 46.90 27.35 42.48 Z" />
<path fill="#221d22" opacity="1.00" d=" M 57.66 76.40 C 58.72 75.05 60.15 76.16 61.31 76.68 C 61.28 77.50 61.25 78.32 61.22 79.14 C 60.63 79.49 59.43 80.21 58.84 80.57 C 57.66 79.62 56.20 77.80 57.66 76.40 Z" />
<path fill="#221d22" opacity="1.00" d=" M 76.30 78.02 C 77.18 77.34 77.63 75.67 78.97 75.74 C 80.38 75.61 80.81 77.28 81.67 78.02 C 81.24 78.49 80.36 79.43 79.93 79.90 C 78.41 81.33 77.30 78.72 76.30 78.02 Z" />
<path fill="#221d22" opacity="1.00" d=" M 58.98 115.30 C 65.04 118.13 71.84 119.27 78.35 117.30 C 76.21 119.95 72.13 119.28 69.09 119.31 C 65.66 118.59 61.08 118.51 58.98 115.30 Z" />
<path fill="#221d22" opacity="1.00" d=" M 61.85 145.80 C 64.43 144.17 66.01 147.01 65.36 149.29 C 62.96 150.51 59.36 148.28 61.85 145.80 Z" />
<path fill="#221d22" opacity="1.00" d=" M 62.38 158.38 C 63.43 158.02 65.51 158.60 65.24 160.05 C 66.07 162.26 62.40 163.50 61.36 161.70 C 60.18 160.58 60.99 158.76 62.38 158.38 Z" />
<path fill="#221d22" opacity="1.00" d=" M 61.07 173.99 C 61.68 172.17 64.54 172.18 65.16 174.01 C 66.12 175.65 63.89 176.55 63.08 177.55 C 62.34 176.53 59.82 175.56 61.07 173.99 Z" />
<path fill="#221d22" opacity="1.00" d=" M 23.87 193.02 C 34.63 189.98 46.01 189.56 57.06 191.02 C 61.34 191.55 65.57 193.15 69.93 192.62 C 84.38 190.71 99.22 189.36 113.64 192.23 C 116.68 192.86 119.65 193.86 122.31 195.48 C 99.57 196.01 76.80 195.47 54.05 196.15 C 41.49 196.07 28.92 196.45 16.35 196.14 C 18.72 194.80 21.24 193.74 23.87 193.02 Z" />
</g>
<g id="#ffffffff">
<path fill="#ffffff" opacity="1.00" d=" M 48.40 58.54 C 54.16 56.83 61.68 57.23 65.34 62.67 C 68.39 66.04 68.04 70.71 67.99 74.92 C 68.96 87.06 56.63 99.05 44.40 96.39 C 36.32 94.22 30.91 85.24 32.85 77.07 C 34.71 68.99 40.20 61.07 48.40 58.54 M 57.66 76.40 C 56.20 77.80 57.66 79.62 58.84 80.57 C 59.43 80.21 60.63 79.49 61.22 79.14 C 61.25 78.32 61.28 77.50 61.31 76.68 C 60.15 76.16 58.72 75.05 57.66 76.40 Z" />
<path fill="#ffffff" opacity="1.00" d=" M 77.28 58.41 C 81.92 56.69 87.19 57.35 91.64 59.35 C 99.30 62.86 103.96 70.99 105.29 79.06 C 106.75 88.08 99.13 97.28 89.97 97.38 C 82.16 97.33 75.28 91.94 71.80 85.19 C 69.14 80.64 69.02 75.17 69.45 70.05 C 69.84 65.21 72.90 60.56 77.28 58.41 M 76.30 78.02 C 77.30 78.72 78.41 81.33 79.93 79.90 C 80.36 79.43 81.24 78.49 81.67 78.02 C 80.81 77.28 80.38 75.61 78.97 75.74 C 77.63 75.67 77.18 77.34 76.30 78.02 Z" />
</g>
<g id="#9056abff">
<path fill="#9056ab" opacity="1.00" d=" M 7.71 157.19 C 10.33 143.65 16.68 131.20 24.44 119.93 C 25.39 123.14 26.84 126.32 29.54 128.43 C 36.42 134.17 44.86 137.62 53.17 140.75 C 57.79 142.30 63.23 144.18 67.76 141.40 C 67.38 155.49 67.62 169.59 67.64 183.68 C 53.04 184.14 38.28 182.99 24.21 178.89 C 22.53 178.41 20.88 177.83 19.22 177.26 C 19.51 176.54 20.10 175.10 20.39 174.37 C 24.88 171.64 26.73 166.56 28.79 162.00 C 28.52 160.18 27.70 158.48 27.49 156.66 C 27.62 153.62 28.34 150.65 28.56 147.62 C 27.13 150.75 26.36 154.12 25.82 157.50 C 22.86 156.61 20.02 155.37 17.01 154.69 C 13.68 154.28 10.92 156.47 8.16 157.95 L 7.71 157.19 M 61.85 145.80 C 59.36 148.28 62.96 150.51 65.36 149.29 C 66.01 147.01 64.43 144.17 61.85 145.80 M 62.38 158.38 C 60.99 158.76 60.18 160.58 61.36 161.70 C 62.40 163.50 66.07 162.26 65.24 160.05 C 65.51 158.60 63.43 158.02 62.38 158.38 M 61.07 173.99 C 59.82 175.56 62.34 176.53 63.08 177.55 C 63.89 176.55 66.12 175.65 65.16 174.01 C 64.54 172.18 61.68 172.17 61.07 173.99 Z" />
<path fill="#9056ab" opacity="1.00" d=" M 108.66 122.11 C 108.96 121.85 109.26 121.58 109.55 121.32 C 117.42 133.09 124.87 145.93 126.07 160.35 L 126.17 161.35 C 123.90 159.32 121.21 157.34 118.02 157.32 C 114.50 157.02 111.61 159.33 108.82 161.11 C 108.24 156.87 107.65 152.60 106.26 148.54 C 106.33 152.39 106.78 156.22 107.27 160.04 C 105.33 162.04 102.47 164.73 104.27 167.74 C 107.21 171.01 109.71 174.70 113.12 177.53 L 112.78 177.86 C 98.27 180.95 83.54 183.46 68.67 183.64 C 69.25 169.94 68.72 156.22 68.95 142.51 C 74.77 142.98 80.67 142.17 86.08 139.92 C 93.08 137.09 100.33 134.10 105.84 128.78 C 107.76 127.08 108.66 124.63 108.66 122.11 Z" />
</g>
<g id="#f2db49ff">
<path fill="#f2db49" opacity="1.00" d=" M 68.67 183.64 C 83.54 183.46 98.27 180.95 112.78 177.86 C 114.52 182.42 113.35 187.46 113.64 192.23 C 99.22 189.36 84.38 190.71 69.93 192.62 C 65.57 193.15 61.34 191.55 57.06 191.02 C 46.01 189.56 34.63 189.98 23.87 193.02 C 23.91 188.31 23.68 183.58 24.21 178.89 C 38.28 182.99 53.04 184.14 67.64 183.68 L 68.67 183.64 Z" />
</g>
</svg>
